<svg width="1299" height="106" viewBox="0 0 1299 106" fill="none" xmlns="http://www.w3.org/2000/svg">
<g opacity="0.25" clip-path="url(#clip0_515_3997)">
<path d="M1294.17 80.4485C1277.36 80.4288 1260.58 79.7064 1244.07 78.2909C1206.42 75.1473 1165.39 67.8294 1129.18 61.3716C1113.33 58.5504 1098.4 55.885 1084.27 53.6348C1032.17 45.3827 985.097 40.9193 924.672 45.9573C887.056 49.075 845.994 56.3855 809.771 62.8285C793.987 65.6385 779.07 68.2928 764.963 70.5356C712.73 78.7988 665.537 83.2733 605.037 78.2576C567.27 75.151 526.075 67.8294 489.735 61.3716C474.051 58.5875 459.243 55.9554 445.236 53.7274C393.095 45.4828 346.002 41.0083 285.635 45.9832C247.844 49.0824 206.582 56.3966 170.183 62.8507C154.591 65.6125 139.866 68.2223 125.968 70.4392L125.759 70.176C139.683 67.9517 154.407 65.3567 169.975 62.5912C206.381 56.1556 247.668 48.8155 285.518 45.7126C346.027 40.7302 393.212 45.2084 445.444 53.4679C459.46 55.6922 474.276 58.3317 489.968 61.1195C526.283 67.5699 567.445 74.8841 605.154 77.9906C665.52 82.9916 712.614 78.5245 764.754 70.2761C778.845 68.0518 793.753 65.3827 809.545 62.5727C845.794 56.1222 886.88 48.8081 924.555 45.683C985.13 40.6338 1032.29 45.1046 1084.48 53.3716C1098.66 55.6255 1113.58 58.2909 1129.41 61.1158C1165.6 67.5662 1206.61 74.8766 1244.19 78.0166C1304.69 83.0954 1351.74 78.6357 1403.79 70.3725L1404 70.6357C1367.05 76.4967 1332.65 80.4448 1294.17 80.4485Z" fill="#4D4C4D"/>
<path d="M1273.83 77.8943C1260.8 77.8892 1247.78 77.4991 1234.86 76.7266C1194.33 74.4764 1150.44 67.7998 1111.71 61.898C1098.81 59.937 1086.62 58.0834 1074.88 56.43C1020.78 48.6228 972.901 44.1186 915.078 47.5329C874.567 49.7572 830.661 56.43 791.918 62.3058C779.054 64.2595 766.89 66.1019 755.211 67.7479C700.984 75.5588 652.99 80.0741 595.143 76.7044C554.456 74.4801 510.391 67.8072 471.515 61.9203C458.768 59.9852 446.738 58.1613 435.192 56.5264C380.965 48.7414 333.079 44.2224 275.349 47.5551C234.613 49.7572 190.447 56.4523 151.488 62.3281C138.874 64.2373 126.961 66.0352 115.473 67.6515L115.281 67.3846C126.761 65.7683 138.64 63.9703 151.279 62.0612C190.272 56.1557 234.471 49.4828 275.274 47.2771C333.113 43.9407 381.091 48.4523 435.342 56.2669C446.93 57.8943 458.968 59.7183 471.707 61.6497C510.558 67.5366 554.59 74.2132 595.176 76.4189C652.915 79.7813 700.818 75.2771 754.977 67.4773C766.657 65.8313 778.82 63.9889 791.684 62.0352C830.485 56.1557 874.425 49.4828 915.003 47.2586C972.942 43.8554 1020.9 48.3707 1075.07 56.1853C1086.81 57.8387 1099.01 59.6923 1111.91 61.6534C1150.61 67.5403 1194.5 74.2095 1234.95 76.4597C1292.85 79.8888 1340.71 75.392 1394.74 67.5811L1394.94 67.848C1353.38 73.8424 1315.46 77.8943 1273.83 77.8943Z" fill="#4D4C4D"/>
<path d="M1251.32 75.6107C1242.97 75.6107 1234.41 75.4624 1225.65 75.1622C1181.08 73.9499 1133.23 67.8369 1091.01 62.4578C1082.14 61.3457 1073.74 60.2595 1065.49 59.2437C1005.34 51.4217 959.869 47.2585 905.493 49.1121C860.927 50.3206 813.066 56.4041 770.836 61.772C762.001 62.8841 753.659 63.9555 745.442 64.9638C685.142 72.7933 639.592 76.9713 585.265 75.151C540.474 73.9499 492.43 67.8517 450.041 62.4578C441.348 61.3457 433.139 60.3114 425.064 59.3216C364.798 51.5143 319.306 47.3364 265.063 49.1121C220.188 50.291 171.994 56.3966 129.464 61.7831C120.962 62.8619 112.937 63.8776 105.02 64.8489L104.845 64.5746C112.762 63.607 120.787 62.5876 129.288 61.5125C171.835 56.1186 220.08 50.0204 265.021 48.8304C319.356 47.0361 364.906 51.2178 425.197 59.051C433.281 60.0408 441.49 61.0825 450.225 62.1835C492.58 67.5625 540.591 73.6571 585.282 74.8434C639.55 76.6561 685.042 72.4856 745.275 64.6636C753.492 63.6552 761.835 62.595 770.661 61.4754C812.924 56.1001 860.827 50.0129 905.451 48.8044C959.936 46.9509 1005.45 51.1288 1065.63 58.962C1073.89 59.974 1082.31 61.0417 1091.16 62.1761C1133.34 67.5477 1181.15 73.6385 1225.66 74.8693C1280.17 76.7451 1325.61 72.5783 1385.66 64.7525L1385.85 65.0231C1335.39 71.6144 1295.21 75.607 1251.32 75.6107Z" fill="#4D4C4D"/>
<path d="M1223.97 73.6311C1221.47 73.6311 1218.96 73.6311 1216.46 73.5977H1216.36C1165.7 73.5977 1112.08 67.9444 1064.73 62.9583L1056.12 62.05C1003.27 55.9332 953.379 50.1612 895.941 50.6654H895.465C844.918 50.6654 791.392 56.2965 744.148 61.2678L735.722 62.1538C682.689 68.2743 632.617 74.0574 575.346 73.5792H574.512C523.831 73.5792 470.23 67.9481 422.928 62.9731L415.011 62.1427C361.986 56.0148 311.939 50.2242 254.776 50.6913H253.742C202.903 50.6913 149.143 56.3373 101.675 61.3234L94.5583 62.0648L94.4165 61.7831L101.524 61.0417C149.043 56.0556 202.828 50.4059 253.734 50.4059H254.768C311.998 49.9536 362.103 55.7293 415.17 61.8572L423.087 62.6876C470.322 67.6478 523.881 73.2863 574.512 73.2863H575.346C632.567 73.7609 682.589 67.9925 735.522 61.8721L743.965 60.9749C791.384 55.9888 845.16 50.3317 895.891 50.3688C953.454 49.8609 1003.38 55.6404 1056.25 61.7609L1064.87 62.6691C1112.16 67.6515 1165.76 73.2975 1216.35 73.2975H1216.45C1274.13 73.8313 1323.93 68.063 1376.63 61.9462L1376.79 62.2242C1326.35 68.0889 1278.55 73.6311 1223.97 73.6311Z" fill="#4D4C4D"/>
<path d="M542.118 72.3337C496.651 72.3337 449.557 68.8341 404.892 64.9194C395.515 63.9741 386.271 63.0065 377.361 62.0686C332.996 57.4421 291.108 53.0603 244.482 52.2595C191.782 50.7248 136.254 54.7248 84.1051 59.2771L83.98 58.9917C136.171 54.4356 191.749 50.4319 244.523 51.9704C291.2 52.7711 333.113 57.1604 377.486 61.8017C386.421 62.7359 395.665 63.7035 405.017 64.6525C457.316 69.216 512.944 73.2345 565.377 71.7183C612.095 70.9398 654.041 66.5283 698.465 61.8981C707.333 60.9713 716.493 60.0112 725.778 59.0733C778.219 54.4912 833.964 50.4616 886.33 51.9481C933.273 52.7118 975.461 57.1381 1020.13 61.8054C1028.8 62.7137 1037.76 63.659 1046.82 64.5709C1099.26 69.1567 1154.96 73.2086 1207.21 71.7257C1254.29 70.9843 1296.64 66.5357 1341.48 61.8462C1349.97 60.9565 1358.73 60.0408 1367.61 59.1363L1367.75 59.4217C1358.88 60.3226 1350.11 61.2419 1341.63 62.1279C1296.76 66.8286 1254.38 71.2697 1207.23 72.0186C1154.93 73.4755 1099.16 69.4236 1046.71 64.8416C1037.62 63.9185 1028.65 62.988 1020.01 62.0723C975.378 57.4013 933.248 52.9861 886.33 52.2225C834.031 50.7396 778.336 54.7656 725.953 59.3402C716.677 60.2781 707.516 61.2382 698.648 62.165C654.191 66.8175 612.203 71.2104 565.443 71.9926C557.729 72.2249 549.954 72.3386 542.118 72.3337Z" fill="#4D4C4D"/>
<path d="M501.79 71.874C469.604 71.874 434.215 70.4987 394.805 67.7368C375.96 66.1057 357.773 64.2447 340.154 62.4579C304.681 58.836 271.178 55.4143 234.204 53.8425C188.545 51.2475 136.029 52.1224 73.6602 56.5005L73.5601 56.2076C135.987 51.8295 188.562 50.9583 234.279 53.5533C271.294 55.1215 304.815 58.5469 340.312 62.1724C357.923 63.9741 376.135 65.8351 394.931 67.4625C457.499 71.8518 509.974 72.7341 555.449 70.165C592.506 68.608 626.085 65.1826 661.633 61.5533C679.152 59.7628 697.338 57.9092 716.059 56.2855C778.745 51.8851 831.319 50.9843 876.794 53.5274C914.019 55.0807 947.756 58.5209 983.478 62.1613C1000.89 63.937 1018.88 65.7721 1037.44 67.3847C1100.07 71.7887 1152.56 72.7081 1197.96 70.191C1235.31 68.6488 1269.17 65.1975 1305.02 61.5459C1322.29 59.785 1340.16 57.9648 1358.57 56.3559L1358.7 56.6414C1340.3 58.2466 1322.43 60.0631 1305.17 61.8314C1269.29 65.4866 1235.41 68.938 1198.04 70.4801C1152.61 73.001 1100.03 72.0853 1037.33 67.6738C1018.75 66.0612 1000.74 64.2262 983.328 62.4505C947.631 58.8101 913.91 55.3698 876.719 53.8203C831.303 51.2772 778.786 52.178 716.176 56.5747C697.472 58.1947 679.327 60.0482 661.783 61.8388C626.21 65.4681 592.615 68.8823 555.524 70.4579C537.698 71.4325 519.751 71.9054 501.79 71.874Z" fill="#4D4C4D"/>
<path d="M455.214 72.4374C431.643 72.4275 408.095 71.7924 384.694 70.5356C357.673 68.5894 331.669 65.8053 306.517 63.1214C279.971 60.278 252.49 57.3382 223.909 55.4142C175.013 51.2993 119.444 50.7099 63.1987 53.709L63.1152 53.4161C119.427 50.4096 175.072 51.0027 224.017 55.1214C252.624 57.0491 280.112 59.9851 306.717 62.8285C331.861 65.5162 357.856 68.2965 384.836 70.2428C441.215 73.2493 496.784 72.6784 545.521 68.5857C574.186 66.6469 601.733 63.7071 628.371 60.8637C653.432 58.1835 679.377 55.4142 706.323 53.4717C762.852 50.4541 818.489 51.0102 867.242 55.0806C896.016 57.0157 923.671 59.9629 950.425 62.8174C975.453 65.4791 1001.24 68.2335 1028.01 70.1723C1084.46 73.19 1140.03 72.6487 1188.7 68.6079C1217.56 66.6765 1245.32 63.7256 1272.13 60.8674C1297.06 58.2205 1322.84 55.481 1349.53 53.5607L1349.64 53.8535C1322.94 55.7887 1297.22 58.5282 1272.33 61.1751C1245.48 64.0333 1217.72 66.9879 1188.84 68.9193C1140.11 72.9638 1084.46 73.5051 1027.94 70.4837C1001.11 68.5412 975.269 65.7868 950.267 63.1214C923.529 60.2743 895.882 57.3271 867.134 55.392C818.43 51.3141 762.852 50.7692 706.423 53.7831C679.527 55.7219 653.59 58.4912 628.513 61.1677C601.867 64.0148 574.286 66.9583 545.63 68.8971C517.39 71.2474 486.915 72.4374 455.214 72.4374Z" fill="#4D4C4D"/>
<path d="M413.368 74.0391C400.326 74.0391 387.414 73.8043 374.634 73.3347C340.621 71.381 309.287 67.6999 276.117 63.8C255.92 61.4237 235.03 58.9807 213.623 56.9603C160.756 51.0659 105.17 48.9677 52.7376 50.8991L52.6875 50.6026C105.145 48.6674 160.848 50.7694 213.773 56.6711C235.188 58.6767 256.086 61.1197 276.292 63.5108C309.437 67.407 340.746 71.0882 374.734 73.0381C427.242 74.9733 482.861 72.8936 535.586 67.0215C557.068 65.0159 578.016 62.5729 598.28 60.1781C631.383 56.293 662.659 52.6229 696.596 50.6693C749.229 48.7304 804.932 50.799 857.699 56.6489C879.247 58.6545 900.246 61.0975 920.61 63.4997C953.629 67.3662 984.847 71.0215 1018.63 72.9714C1071.19 74.9102 1126.8 72.8602 1179.49 67.04C1201.11 65.0381 1222.2 62.5914 1242.6 60.1892C1275.58 56.3338 1306.72 52.6934 1340.5 50.7397L1340.59 51.0363C1306.85 52.9862 1275.73 56.6266 1242.77 60.4784C1222.37 62.8621 1201.27 65.3273 1179.64 67.3329C1126.9 73.1568 1071.18 75.2105 1018.57 73.2643C984.689 71.3106 953.496 67.6554 920.435 63.7851C900.112 61.4051 879.089 58.9399 857.549 56.938C804.816 51.0956 749.188 49.0307 696.646 50.9659C662.768 52.9158 631.508 56.5822 598.422 60.4672C578.158 62.8472 557.201 65.305 535.711 67.3143C495.697 71.7582 454.613 74.0165 413.368 74.0391Z" fill="#4D4C4D"/>
<path d="M381.074 76.304C375.484 76.304 369.978 76.2484 364.556 76.1372C324.553 74.4282 287.529 69.5014 248.319 64.3114C233.712 62.3726 218.612 60.367 203.337 58.5394C146.941 50.7025 91.2549 47.0992 42.2593 48.1075V47.8035C91.3216 46.7952 147.083 50.3985 203.528 58.2391C218.795 60.063 233.904 62.0686 248.511 64.0111C287.721 69.2011 324.695 74.1279 364.606 75.8332C413.685 76.8453 469.371 73.2382 525.616 65.4532C540.95 63.6219 556.108 61.6126 570.766 59.6701C609.926 54.4801 646.908 49.5718 686.836 47.8666C736.056 46.8545 791.801 50.4282 848.121 58.2132C863.48 60.0445 878.688 62.0538 893.388 64C932.473 69.19 969.397 74.0575 1009.2 75.7665C1058.29 76.7822 1113.98 73.2197 1170.21 65.4718C1185.63 63.6404 1200.88 61.6275 1215.62 59.6812C1254.69 54.5209 1291.61 49.646 1331.43 47.9296L1331.49 48.2299C1291.73 49.9463 1254.86 54.8137 1215.81 59.9704C1201.07 61.9166 1185.78 63.9333 1170.39 65.7609C1114.11 73.5237 1058.38 77.0899 1009.16 76.0705C969.271 74.3578 932.323 69.4718 893.196 64.2929C878.497 62.3503 863.297 60.3374 847.93 58.5098C791.668 50.7248 735.998 47.1585 686.919 48.1705C647.075 49.8758 610.118 54.7767 570.958 59.963C556.3 61.9055 541.142 63.9185 525.808 65.7461C475.711 72.6933 426.015 76.304 381.074 76.304Z" fill="#4D4C4D"/>
<path d="M357.406 78.9435H354.47C309.278 77.6793 267.123 71.2845 222.499 64.5116C212.897 63.0547 202.969 61.5459 193.042 60.1001C132.65 50.0908 78.399 45.0973 31.8311 45.3197V45.0157C78.4908 44.8007 132.817 49.7683 193.259 59.8072C203.178 61.2493 213.114 62.7729 222.716 64.215C267.299 70.9805 309.403 77.3716 354.486 78.6321C401.204 78.8545 455.431 73.8869 515.664 63.8925C525.675 62.4393 535.627 60.9268 545.28 59.4661C589.862 52.7117 631.967 46.3318 677.091 45.0676C723.868 44.8452 778.211 49.8016 838.552 59.7887C848.563 61.2382 858.575 62.7544 868.219 64.2113C912.734 70.9472 954.78 77.3049 999.78 78.569C1000.76 78.569 1001.75 78.569 1002.74 78.569C1048.76 78.569 1101.97 73.6385 1160.96 63.9036C1170.97 62.4467 1180.98 60.9379 1190.72 59.455C1235.26 52.7303 1277.33 46.38 1322.39 45.1084V45.4124C1277.42 46.6839 1235.39 53.0268 1190.9 59.7442C1181.2 61.227 1171.17 62.7099 1161.15 64.1927C1102.1 73.9388 1048.8 78.8767 1002.64 78.8804H999.672C954.563 77.6126 912.475 71.2437 867.91 64.5041C858.241 63.0435 848.238 61.5384 838.244 60.0778C778.069 50.1019 723.843 45.1492 677.125 45.3753C632.075 46.632 590.046 53.0046 545.505 59.7553C535.861 61.2159 525.875 62.721 515.906 64.1816C456.832 73.9759 403.49 78.9435 357.406 78.9435Z" fill="#4D4C4D"/>
<path d="M344.383 81.7349C294.579 81.0862 247.76 72.949 198.189 64.3336C193.067 63.4439 187.919 62.5468 182.755 61.6608C117.701 49.1121 66.4524 43.0176 21.4028 42.5208V42.2131C66.5525 42.7099 117.909 48.8007 183.031 61.3753C188.186 62.2601 193.328 63.1498 198.456 64.0445C247.969 72.6524 294.737 80.7785 344.4 81.4272C389.541 80.9268 440.815 74.8582 505.753 62.3281C510.992 61.426 516.173 60.5289 521.295 59.6367C570.833 51.0398 617.618 42.9175 667.356 42.2687C712.622 42.7692 763.979 48.8341 829 61.3568C834.217 62.249 839.409 63.1449 844.576 64.0445C894.047 72.6191 940.773 80.7266 990.378 81.3716C1035.51 80.8712 1086.79 74.8248 1151.72 62.3429C1156.97 61.4458 1162.18 60.5474 1167.36 59.6478C1216.87 51.0806 1263.65 42.9879 1313.35 42.3243V42.632C1263.76 43.2956 1217.05 51.3772 1167.59 59.937C1162.41 60.8341 1157.2 61.7312 1151.97 62.6283C1086.97 75.1251 1035.6 81.164 990.353 81.6793C940.615 81.0231 893.83 72.9156 844.309 64.3336C839.136 63.4365 833.942 62.5394 828.725 61.6422C763.77 49.1344 712.497 43.0769 667.347 42.5764C617.759 43.2252 571.025 51.3364 521.553 59.9221C516.392 60.8193 511.206 61.7164 505.995 62.6135C441.031 75.1585 389.633 81.2345 344.383 81.7349Z" fill="#4D4C4D"/>
<path d="M333.472 84.5375C279.762 84.5375 228.831 74.4207 174.964 63.7145L172.461 63.2252C123.374 52.4189 65.7936 41.1789 10.9165 39.7257L10.9582 39.418C65.9604 40.8712 123.582 52.126 172.803 62.9435L175.256 63.4291C229.09 74.1205 279.954 84.2261 333.497 84.2261H334.331C389.308 82.7692 446.83 71.5514 495.842 60.7674L498.428 60.2558C552.246 49.5644 603.152 39.4736 656.803 39.4736H657.637C712.773 40.9305 770.378 52.1483 819.482 62.9286L822.026 63.4328C875.852 74.0982 926.716 84.1742 980.234 84.1742H980.993C1035.97 82.7173 1093.5 71.5329 1142.51 60.7822L1145.09 60.2743C1199.01 49.6052 1249.95 39.5144 1303.6 39.5144H1304.31V39.8443H1303.6C1250.06 39.8443 1199.19 49.9129 1145.34 60.5672L1142.78 61.0751C1093.71 71.8257 1036.1 83.0361 980.984 84.4967H980.217C926.525 84.4967 875.61 74.4096 821.709 63.7368L819.148 63.1992C770.119 52.4486 712.589 41.2271 657.603 39.7701H656.769C603.277 39.7701 552.488 49.8536 498.645 60.5301L496.092 61.0454C447.03 71.8406 389.425 83.0732 334.298 84.5338L333.472 84.5375Z" fill="#4D4C4D"/>
<path d="M317.813 87.3882C266.782 87.3882 217.018 77.1454 162.175 64.7747C110.126 51.9331 54.7732 39.1954 0.463379 36.9341L0.530133 36.6227C54.9817 38.8877 110.409 51.6403 162.508 64.5115C219.538 77.3604 271.07 87.9257 324.17 87.0212C378.588 84.7524 433.882 72.0332 485.856 59.2177C543.011 46.3354 594.659 35.7663 647.926 36.6672C702.503 38.9396 757.88 51.6625 809.929 64.4966C866.976 77.3233 918.507 87.8738 971.591 86.973C1026.01 84.7005 1081.3 72.0147 1133.28 59.214C1190.43 46.3761 1242.09 35.8219 1295.31 36.7153V37.0305C1242.22 36.1407 1190.69 46.669 1133.64 59.492C1081.6 72.3039 1026.23 85.0082 971.666 87.2955C918.399 88.1964 866.767 77.6347 809.621 64.7858C757.63 51.9628 702.328 39.2584 647.909 36.9823C594.851 36.0851 543.311 46.6208 486.257 59.4772C434.166 72.3261 378.797 85.0712 324.236 87.3326C322.084 87.3697 319.943 87.3882 317.813 87.3882Z" fill="#4D4C4D"/>
<path d="M303.38 90.3059C251.431 90.3059 200.158 78.5283 151.88 66.3541C93.8077 50.4505 41.5502 37.0677 -9.96484 34.1391L-9.87306 33.824C41.8505 36.7489 94.1581 50.1613 152.289 66.0761C203.779 79.051 258.689 91.596 314.092 89.8017C365.749 86.8805 417.956 73.4903 475.937 57.6238C527.535 44.6303 582.562 32.0779 638.149 33.8685C689.964 36.7971 742.255 50.1799 800.327 66.0649C851.826 79.0399 906.753 91.5441 962.172 89.7906C1013.81 86.8657 1066.03 73.5126 1124.02 57.6683C1175.62 44.6933 1230.63 32.1521 1286.25 33.9426L1286.2 34.2577C1230.81 32.4931 1175.88 45.0084 1124.35 57.9537C1066.29 73.8129 1014 87.1845 962.197 90.1168C958.626 90.233 955.059 90.2898 951.494 90.2874C899.536 90.2874 848.247 78.5283 799.96 66.3689C741.938 50.5024 689.722 37.1344 638.115 34.2132C582.746 32.4301 527.827 44.9639 476.27 57.9389C418.223 73.8351 365.941 87.2253 314.125 90.1613C310.544 90.2577 306.962 90.3059 303.38 90.3059Z" fill="#4D4C4D"/>
<path d="M289.556 93.2715C268.7 93.2715 246.701 91.214 222.649 87.0435C193.25 81.9462 163.893 74.1426 141.602 67.9184L139.182 67.1769C84.3137 50.695 32.4816 35.1139 -20.4517 31.3475L-20.3098 31.0286C32.782 34.8099 84.6724 50.4096 139.616 66.9249L142.027 67.6663C201.985 84.4188 252.474 95.0768 303.981 92.6338C357.006 88.8526 408.963 73.2381 463.965 56.7043L466.009 56.0926C488.283 49.8535 517.641 42.0685 547.031 36.9564C576.739 31.8071 603.36 29.8794 628.413 31.0694C681.613 34.8581 733.604 50.4726 788.656 67.0027L790.766 67.6366C850.732 84.3669 901.23 95.0101 952.72 92.5745C1005.74 88.7784 1057.69 73.2084 1112.67 56.708L1114.75 56.0852C1137.04 49.8683 1166.39 42.087 1195.8 36.9934C1225.51 31.8516 1252.13 29.9276 1277.19 31.1102L1277.11 31.429C1225.6 28.9971 1175.11 39.6329 1115.11 56.3558L1113.05 56.9749C1057.99 73.4939 1005.98 89.0935 952.787 92.8933C927.759 94.0796 901.063 92.1519 871.38 87.0064C841.981 81.9128 812.632 74.1241 790.341 67.9035L788.247 67.277C733.27 50.7692 681.338 35.1732 628.321 31.3994C576.848 28.9452 526.35 39.5958 466.376 56.341L464.34 56.9527C409.28 73.505 357.256 89.1417 304.047 92.9119C299.235 93.1458 294.398 93.2658 289.556 93.2715Z" fill="#4D4C4D"/>
<path d="M276.409 96.2744C256.428 96.2744 235.338 94.2206 212.438 90.065C188.704 85.7573 163.684 79.4106 131.324 69.4792C127.881 68.3547 124.452 67.2315 121.037 66.1094C69.0052 49.0307 19.8594 32.9009 -30.9048 28.5524L-30.7713 28.2336C20.1181 32.5969 69.3389 48.7489 121.463 65.8499L131.741 69.216C180.411 84.1447 237.741 98.9324 293.844 95.4106C344.692 91.0548 393.955 74.8916 446.07 57.7795L456.081 54.5098C488.45 44.5858 513.47 38.2392 537.204 33.9352C566.92 28.545 593.583 26.6914 618.71 28.2707C669.733 32.6377 719.021 48.8045 771.203 65.9167C774.54 67.014 777.877 68.1101 781.214 69.2049C829.885 84.1187 887.214 98.8879 943.318 95.3773C994.14 91.0029 1043.36 74.8768 1095.5 57.798C1098.84 56.7032 1102.18 55.6108 1105.51 54.5209C1137.44 44.7452 1163.21 38.2095 1186.64 33.9723C1216.35 28.5858 1243.01 26.7322 1268.14 28.304L1268.04 28.6266C1211.92 25.1122 1154.58 39.8777 1105.93 54.7841L1095.92 58.0575C1043.73 75.1623 994.432 91.3143 943.409 95.6961C918.257 97.2716 891.602 95.4181 861.886 90.0316C838.469 85.7832 812.666 79.2512 780.772 69.4718L770.761 66.1762C718.62 49.0863 669.4 32.9417 618.56 28.5895C562.482 25.0677 505.152 39.8444 456.465 54.773L446.504 58.039C394.313 75.1734 344.992 91.3736 293.961 95.7295C288.146 96.0944 282.281 96.2765 276.409 96.2744Z" fill="#4D4C4D"/>
<path d="M263.745 99.303C244.482 99.303 224.184 97.2455 202.235 93.0861C178.184 88.5264 152.38 81.5236 121.038 71.0435C115.587 69.1207 110.167 67.193 104.778 65.2604C54.9231 47.4735 7.82962 30.6691 -41.3662 25.7571L-41.1994 25.4383C8.15499 30.3688 55.3152 47.1918 105.237 65.0046C110.632 66.9323 116.049 68.86 121.488 70.7877C166.755 85.9202 226.112 102.717 283.733 98.2205C332.954 93.3011 380.156 76.4707 430.095 58.658C435.417 56.7574 440.756 54.8581 446.112 52.9601C477.463 42.4689 503.267 35.4698 527.31 30.9137C557.051 25.2826 583.755 23.4995 608.941 25.4717C658.379 30.4059 705.598 47.2585 755.586 65.0528C760.925 66.9533 766.279 68.8563 771.646 70.7618C816.92 85.8832 876.286 102.662 933.891 98.1612C983.112 93.2344 1030.31 76.43 1080.24 58.6357C1085.57 56.7377 1090.91 54.8396 1096.27 52.9416C1127.62 42.4911 1153.42 35.4995 1177.47 30.9471C1207.22 25.316 1233.91 23.5328 1259.1 25.5013L1258.97 25.8238C1201.35 21.3271 1141.99 38.0982 1096.75 53.2159C1091.4 55.1065 1086.06 57.0033 1080.74 58.9063C1030.73 76.7228 983.504 93.5495 934.074 98.4986C908.872 100.467 882.167 98.6839 852.426 93.0528C828.375 88.5004 802.571 81.505 771.228 71.0361C765.85 69.1356 760.494 67.2313 755.161 65.3234C705.239 47.5291 658.087 30.7099 608.833 25.7905C551.27 21.2863 491.871 38.0759 446.588 53.2233C441.215 55.1065 435.87 56.9984 430.553 58.8989C380.548 76.7414 333.313 93.5977 283.875 98.5282C277.229 99.0463 270.493 99.3055 263.745 99.303Z" fill="#4D4C4D"/>
<path d="M251.465 102.358C232.819 102.358 213.189 100.286 192.024 96.1039C167.781 91.318 141.202 83.6331 110.751 72.6081C103.719 69.9352 96.6358 67.1993 89.7866 64.5562C41.6502 45.976 -3.80814 28.4264 -51.8193 22.9658L-51.6358 22.6433C-3.45776 28.1261 42.0674 45.7017 90.2704 64.3115C97.1196 66.9547 104.202 69.6905 111.227 72.3597C177.792 96.4561 227.88 105.298 273.622 101.012C321.684 95.5404 367.209 77.9649 415.445 59.3625C422.236 56.7415 429.252 54.0353 436.21 51.3884C466.626 40.3634 493.214 32.6785 517.449 27.8963C547.24 22.0168 573.978 20.3078 599.206 22.6729C647.451 28.1632 693.034 45.7462 741.296 64.3671C748.086 66.988 755.119 69.698 762.085 72.3486C828.65 96.4449 878.739 105.261 924.481 100.979C972.533 95.4959 1018.07 77.9426 1066.3 59.3588C1073.09 56.7415 1080.1 54.0353 1087.06 51.3921C1117.5 40.3819 1144.09 32.7044 1168.34 27.9222C1198.13 22.0464 1224.87 20.3374 1250.1 22.6989L1249.94 23.0214C1204.2 18.7397 1154.11 27.5664 1087.54 51.6442C1080.59 54.2837 1073.57 56.9899 1066.79 59.6071C1018.52 78.217 972.926 95.7962 924.681 101.298C899.445 103.663 872.699 101.954 842.924 96.0779C818.672 91.2957 792.093 83.6145 761.651 72.6006C754.677 69.95 747.644 67.2364 740.845 64.6155C692.617 46.0242 647.092 28.4635 599.039 22.9918C553.314 18.7137 503.225 27.5404 436.652 51.6368C429.702 54.28 422.686 56.9862 415.904 59.6071C367.617 78.2355 322.034 95.8221 273.789 101.327C266.449 102.016 258.967 102.361 251.465 102.358Z" fill="#4D4C4D"/>
<path d="M239.426 105.427C199.432 105.427 154.558 95.2735 100.473 74.1725C92.1309 70.7915 83.7883 67.3143 75.7044 63.9556C28.9863 44.5265 -15.1623 26.1799 -62.2725 20.1706L-62.0639 19.8518C-14.7869 25.8796 29.4201 44.2559 76.2217 63.7109C84.2972 67.0733 92.6564 70.5469 100.966 73.9241C166.037 99.3217 217.761 108.816 263.511 103.804C310.663 97.7869 354.87 79.4143 401.663 59.963C409.689 56.6266 417.99 53.1789 426.24 49.8203C491.554 24.3522 543.419 14.836 589.47 19.874C636.814 25.913 681.063 44.3003 727.956 63.7665C735.99 67.1029 744.299 70.558 752.558 73.9167C817.63 99.2957 869.353 108.786 915.104 103.781C962.255 97.7535 1006.45 79.3958 1053.26 59.963C1061.28 56.6266 1069.58 53.1826 1077.83 49.8277C1143.14 24.3745 1195 14.8657 1241.06 19.8963L1240.88 20.2188C1195.09 15.2142 1143.43 24.7007 1078.33 50.0761C1070.09 53.4125 1061.79 56.8712 1053.76 60.204C1006.9 79.6664 962.639 98.0501 915.279 104.1C907.335 104.97 899.183 105.407 891.002 105.401C851 105.401 806.134 95.2549 752.041 74.165C743.765 70.8027 735.456 67.3513 727.422 64.0112C680.637 44.571 636.488 26.1984 589.295 20.1928C543.519 15.1882 491.863 24.6785 426.758 50.0687C418.515 53.4051 410.214 56.8712 402.189 60.2077C355.329 79.685 311.064 98.0872 263.703 104.126C255.759 104.994 247.607 105.431 239.426 105.427Z" fill="#4D4C4D"/>
<path d="M228.072 108.467C210.253 108.467 191.365 106.358 171.61 102.146C146.507 96.7933 119.886 88.1556 90.1871 75.7367C80.8018 71.6589 71.3914 67.4772 62.2897 63.4216C16.7229 43.1102 -26.3162 23.9221 -72.7256 17.3753L-72.5003 17.0565C-25.9157 23.6255 17.2318 42.8433 62.832 63.1992C71.9253 67.2548 81.3273 71.4476 90.7127 75.5069C154.433 102.165 207.65 112.341 253.392 106.617C299.843 100.063 342.932 80.8526 388.541 60.5152C397.592 56.4818 406.944 52.3113 416.271 48.2817C446.037 35.8405 472.633 27.2029 497.761 21.8535C527.26 15.5514 554.849 13.9573 579.759 17.075C626.402 23.6552 669.55 42.8841 715.234 63.2437C724.285 67.277 733.646 71.4476 742.981 75.4772C806.701 102.12 859.926 112.293 905.66 106.573C952.111 100.004 995.217 80.8044 1040.81 60.4818C1049.85 56.4522 1059.16 52.2891 1068.53 48.2483C1132.47 21.5198 1185.92 11.3252 1231.95 17.0787L1231.75 17.4012C1186 11.6811 1132.78 21.8498 1069.07 48.493C1059.76 52.5226 1050.41 56.6857 1041.37 60.7265C995.676 81.0787 952.511 100.308 905.868 106.899C897.545 107.94 888.937 108.464 880.29 108.456C840.246 108.456 794.871 97.6533 742.43 75.7256C733.095 71.6848 723.726 67.5106 714.675 63.492C669.058 43.151 625.969 23.948 579.518 17.3938C533.776 11.67 480.559 21.8461 416.838 48.5004C407.52 52.5375 398.168 56.7043 389.125 60.7339C343.424 81.1046 300.26 100.341 253.625 106.943C245.306 107.971 236.707 108.483 228.072 108.467Z" fill="#4D4C4D"/>
<path d="M216.509 111.559C199.107 111.559 180.636 109.423 161.407 105.164C136.287 99.6032 108.849 90.239 79.9087 77.3011C69.614 72.5745 59.336 67.681 49.3918 62.9433C4.80101 41.7163 -37.312 21.6792 -83.1875 14.58L-82.9372 14.2612C-36.8865 21.3715 5.29322 41.4531 49.9424 62.7135C59.8867 67.4475 70.1646 72.352 80.451 77.0638C109.349 89.9758 136.705 99.3289 161.74 104.867C191.131 111.359 218.57 112.875 243.314 109.401C289.197 102.309 331.369 82.2353 376.01 60.9748C385.904 56.2631 396.14 51.3919 406.376 46.6912C435.342 33.7571 462.722 24.3817 487.875 18.8321C517.449 12.2964 545.079 10.7654 569.998 14.2649C616.099 21.3826 658.32 41.479 703.011 62.758C712.914 67.4734 723.15 72.3446 733.395 77.0453C762.285 89.9535 789.64 99.2881 814.684 104.849C844.075 111.344 871.522 112.871 896.241 109.386C942.125 102.283 984.321 82.2167 1028.97 60.9711C1038.86 56.2631 1049.08 51.3993 1059.31 46.7024C1088.28 33.7719 1115.7 24.4002 1140.81 18.8507C1170.39 12.3187 1198.02 10.7876 1222.94 14.2946L1222.71 14.6171C1197.99 11.1361 1170.55 12.6634 1141.15 19.1546C1116.12 24.6857 1088.76 34.0351 1059.86 46.9582C1049.63 51.6514 1039.42 56.5152 1029.53 61.2195C984.813 82.4985 942.583 102.595 896.474 109.727C871.547 113.238 843.916 111.707 814.342 105.171C789.223 99.6106 761.784 90.2501 732.844 77.3159C722.6 72.6115 712.363 67.7367 702.461 63.0249C657.828 41.7533 615.673 21.6792 569.756 14.5986C545.046 11.1139 517.607 12.6412 488.216 19.1361C463.189 24.6709 435.817 34.0203 406.919 46.9396C396.691 51.6366 386.463 56.5077 376.569 61.2195C331.861 82.5059 289.64 102.61 243.539 109.727C234.796 110.954 225.678 111.572 216.509 111.559Z" fill="#4D4C4D"/>
<path d="M205.155 114.662C165.111 114.662 119.703 102.673 69.6224 78.8618C58.5603 73.4976 47.5398 67.9109 36.8864 62.5096C-6.86176 40.3409 -48.2073 19.3993 -93.6406 11.7849L-93.3653 11.4661C-47.7318 19.1102 -6.35286 40.0814 37.462 62.2835C48.1154 67.6848 59.1526 73.2677 70.1898 78.6319C132.241 108.137 187.085 119.433 233.186 112.2C278.678 104.578 320.048 83.6143 363.838 61.4123C374.45 56.0332 385.428 50.4688 396.441 45.1231C458.734 15.5217 513.845 4.19636 560.263 11.4772C605.946 19.1287 647.367 40.1185 691.24 62.3428C701.852 67.7218 712.831 73.2863 723.843 78.6282C785.894 108.126 840.738 119.407 886.839 112.185C932.339 104.549 973.71 83.5921 1017.52 61.3975C1028.12 56.0221 1039.09 50.4651 1050.05 45.1269C1112.34 15.5254 1167.45 4.20378 1213.87 11.4809L1213.62 11.8034C1167.51 4.57449 1112.67 15.8813 1050.62 45.3604C1039.62 50.695 1028.65 56.2483 1018.08 61.6199C974.218 83.8627 932.781 104.83 887.106 112.5C878.02 113.926 868.452 114.649 858.816 114.639C818.772 114.639 773.356 102.658 723.275 78.8507C712.263 73.505 701.276 67.9406 690.656 62.5578C646.858 40.378 605.496 19.4179 559.996 11.7997C513.912 4.57078 459.051 15.8775 397.008 45.3641C385.971 50.7024 375.025 56.2668 364.414 61.6421C320.557 83.885 279.136 104.867 233.436 112.519C224.353 113.945 214.788 114.669 205.155 114.662Z" fill="#4D4C4D"/>
<path d="M193.884 117.765C177.158 117.765 159.471 115.577 140.993 111.207C115.231 105.116 87.7591 94.7619 59.3445 80.4375C47.6149 74.4431 35.9855 68.178 24.6897 62.1169C-18.3243 38.9769 -58.9524 17.1345 -104.094 8.98988L-103.802 8.67107C-58.4852 16.8601 -17.8071 38.7322 25.282 61.887C36.5527 67.9445 48.2072 74.2095 59.9285 80.2003C88.293 94.5024 115.673 104.83 141.351 110.903C170.892 117.887 198.389 119.266 223.108 114.981C268.275 106.825 308.953 84.9528 352.008 61.8054C363.212 55.7851 374.825 49.5422 386.513 43.57C414.928 29.2383 442.408 18.8842 468.153 12.8008C497.911 5.75726 525.625 4.38191 550.527 8.6859C595.885 16.8601 636.613 38.7619 679.736 61.9426C690.965 67.9815 702.578 74.2244 714.257 80.1966C742.622 94.495 770.01 104.823 795.689 110.892C825.229 117.876 852.726 119.255 877.445 114.969C922.62 106.814 963.307 84.9417 1006.38 61.7869C1017.57 55.7851 1029.18 49.5385 1040.86 43.57C1069.27 29.242 1096.75 18.8916 1122.51 12.8008C1152.26 5.75726 1179.97 4.38191 1204.87 8.6859L1204.59 9.00842C1179.9 4.7415 1152.41 6.12056 1122.83 13.0863C1097.15 19.1548 1069.76 29.4829 1041.41 43.7776C1029.73 49.7461 1018.14 55.9778 1006.92 62.0093C963.79 85.1901 923.046 107.088 877.679 115.292C852.768 119.596 825.054 118.213 795.305 111.181C769.543 105.09 742.071 94.7359 713.657 80.4116C701.977 74.432 690.356 68.178 679.119 62.1465C636.08 39.014 595.418 17.1493 550.243 9.001C525.558 4.73409 498.061 6.10943 468.487 13.0974C442.808 19.166 415.412 29.4978 387.064 43.7962C375.384 49.7684 363.78 56.0075 352.551 62.0427C309.428 85.2308 268.692 107.133 223.333 115.318C213.946 116.943 203.958 117.773 193.884 117.765Z" fill="#4D4C4D"/>
<path d="M182.814 120.879C133.451 120.879 84.2138 100.745 49.0668 81.9908C36.7449 75.3772 24.5481 68.4375 12.7518 61.7276C-29.6282 37.62 -69.6473 14.8656 -114.58 6.19834L-114.263 5.87582C-69.2135 14.5802 -29.1026 37.3865 13.3274 61.5125C25.1237 68.2225 37.3205 75.1585 49.634 81.7683C91.8639 104.304 154.483 128.849 212.939 117.794C257.872 109.116 297.932 86.3318 340.354 62.1872C352.109 55.5144 364.272 48.582 376.544 41.987C418.982 19.3809 481.91 -5.2493 540.791 5.87953C585.908 14.595 626.027 37.4124 668.507 61.5719C680.262 68.2447 692.425 75.1733 704.697 81.7683C746.927 104.297 809.546 128.849 867.993 117.791C912.934 109.094 953.012 86.3096 995.442 62.1835C1007.19 55.5107 1019.34 48.5932 1031.61 42.0019C1074.01 19.3883 1136.91 -5.2493 1195.82 5.88324L1195.51 6.20205C1137.06 -4.84522 1074.45 19.696 1032.21 42.2243C1019.95 48.8119 1007.81 55.7183 996.059 62.3948C953.562 86.5543 913.468 109.375 868.31 118.109C858.684 119.937 848.321 120.876 837.852 120.868C788.481 120.868 739.243 100.738 704.096 81.9871C691.816 75.3884 679.653 68.4708 667.89 61.7795C625.476 37.6608 585.416 14.8768 540.483 6.20205C482.035 -4.84522 419.416 19.696 377.178 42.228C364.914 48.8193 352.759 55.7331 340.996 62.4208C298.525 86.5802 258.406 109.401 213.281 118.117C203.652 119.946 193.286 120.886 182.814 120.879Z" fill="#4D4C4D"/>
<path d="M171.735 123.996C155.559 123.996 138.448 121.742 120.579 117.241C94.2414 110.617 66.7278 99.2802 38.822 83.5508C25.9829 76.3256 13.3023 68.7223 1.04711 61.3636C-40.799 36.2848 -80.2841 12.5962 -125 3.40251L-124.666 3.0837C-79.7669 12.3145 -40.2233 36.0401 1.64777 61.156C13.9029 68.5109 26.5752 76.1143 39.406 83.3358C67.2867 99.0281 94.7252 110.335 120.962 116.952C150.678 124.433 178.234 125.66 202.861 120.604C247.619 111.391 287.145 87.6657 328.991 62.5647C341.213 55.232 353.852 47.6472 366.65 40.4405C394.589 24.7148 422.111 13.3784 448.406 6.75006C478.348 -0.786547 506.145 -2.02103 530.997 3.0837C575.938 12.3256 615.515 36.0772 657.428 61.219C669.641 68.5517 682.28 76.1328 695.069 83.3358C722.95 99.0281 750.389 110.335 776.626 116.941C806.342 124.418 833.897 125.649 858.524 120.593C903.29 111.369 942.784 87.6509 984.688 62.5425C996.902 55.2172 1009.52 47.6398 1022.31 40.4405C1050.25 24.7148 1077.77 13.3784 1104.07 6.75006C1134.01 -0.786547 1161.81 -2.02103 1186.66 3.0837L1186.33 3.40251C1161.82 -1.65402 1134.29 -0.42325 1104.55 7.05775C1078.31 13.6602 1050.87 24.9669 1022.99 40.6592C1010.22 47.8548 997.586 55.4285 985.381 62.7501C943.46 87.8956 903.858 111.651 858.917 120.911C834.039 126.016 806.242 124.782 776.326 117.245C749.997 110.617 722.475 99.2839 694.569 83.5545C681.772 76.3478 669.133 68.763 656.902 61.4266C615.006 36.3182 575.479 12.6036 530.722 3.40251C506.103 -1.65402 478.573 -0.42325 448.823 7.05775C422.586 13.6602 395.148 24.9669 367.267 40.6592C354.478 47.8622 341.847 55.4433 329.626 62.7723C287.721 87.9178 248.136 111.669 203.195 120.911C193.342 122.95 182.603 124.003 171.735 123.996Z" fill="#4D4C4D"/>
</g>
<defs>
<clipPath id="clip0_515_3997">
<rect width="1529" height="124" fill="white" transform="translate(-125)"/>
</clipPath>
</defs>
</svg>
