<svg width="22" height="20" viewBox="0 0 22 20" fill="none" xmlns="http://www.w3.org/2000/svg">
<path fill-rule="evenodd" clip-rule="evenodd" d="M21.1993 4.44495C21.0073 4.11232 20.7324 3.83512 20.4014 3.64039C20.0703 3.44567 19.6945 3.34006 19.3105 3.33388H5.08872L4.4443 0.822847C4.37919 0.580453 4.23393 0.367244 4.03218 0.217947C3.83042 0.0686492 3.58406 -0.00794058 3.33323 0.000651624H1.11108C0.8164 0.000651624 0.533793 0.117711 0.325426 0.326078C0.117059 0.534445 0 0.817051 0 1.11173C0 1.4064 0.117059 1.68901 0.325426 1.89738C0.533793 2.10574 0.8164 2.2228 1.11108 2.2228H2.48881L5.55538 13.6224C5.62048 13.8648 5.76575 14.078 5.9675 14.2273C6.16925 14.3766 6.41561 14.4532 6.66645 14.4446H16.6661C16.8713 14.444 17.0723 14.3866 17.2468 14.2787C17.4214 14.1709 17.5627 14.0168 17.655 13.8335L21.2993 6.54488C21.4573 6.2138 21.5308 5.84876 21.5134 5.48234C21.4959 5.11593 21.388 4.75953 21.1993 4.44495ZM6.11091 20C7.03136 20 7.77752 19.2538 7.77752 18.3334C7.77752 17.4129 7.03136 16.6668 6.11091 16.6668C5.19047 16.6668 4.4443 17.4129 4.4443 18.3334C4.4443 19.2538 5.19047 20 6.11091 20ZM18.8883 18.3334C18.8883 19.2538 18.1421 20 17.2217 20C16.3012 20 15.555 19.2538 15.555 18.3334C15.555 17.4129 16.3012 16.6668 17.2217 16.6668C18.1421 16.6668 18.8883 17.4129 18.8883 18.3334Z" fill="white"/>
</svg>
