<svg width="30" height="30" viewBox="0 0 30 30" fill="none" xmlns="http://www.w3.org/2000/svg">
<path d="M12.2152 7.26402C11.5454 7.39436 10.812 7.82637 10.2357 8.83936C10.1751 8.94573 10.0939 9.03916 9.99694 9.11432C9.89997 9.18949 9.78908 9.2449 9.67059 9.27741C9.55211 9.30992 9.42835 9.31888 9.30638 9.30378C9.18441 9.28869 9.06663 9.24983 8.95975 9.18943C8.85287 9.12903 8.75899 9.04827 8.68348 8.95176C8.60796 8.85525 8.55228 8.74488 8.51961 8.62696C8.48695 8.50903 8.47795 8.38586 8.49312 8.26447C8.50828 8.14308 8.54732 8.02585 8.60801 7.91948C9.4331 6.47448 10.6062 5.67937 11.856 5.43729C13.0189 5.21871 14.2216 5.45985 15.2087 6.10951C16.1143 6.70538 16.8458 7.67926 16.8683 8.8468C16.8926 10.0665 16.148 11.167 14.7747 11.9751C13.8429 12.5226 13.48 12.895 13.3247 13.1427C13.1937 13.3512 13.1638 13.5412 13.1638 13.9657C13.1638 14.2127 13.0652 14.4495 12.8898 14.6241C12.7144 14.7987 12.4764 14.8968 12.2283 14.8968C11.9802 14.8968 11.7423 14.7987 11.5668 14.6241C11.3914 14.4495 11.2928 14.2127 11.2928 13.9657C11.2928 13.4592 11.319 12.8298 11.7362 12.1595C12.1291 11.532 12.8008 10.9733 13.8224 10.3719C14.8233 9.78158 15.0048 9.22109 14.9992 8.88591C14.9898 8.50045 14.7335 8.02934 14.176 7.66251C13.5987 7.28242 12.896 7.1396 12.2152 7.26402Z" fill="#F5F0F8"/>
<path d="M12.6964 19.5521C13.0685 19.5521 13.4254 19.4049 13.6886 19.143C13.9517 18.8811 14.0996 18.5259 14.0996 18.1555C14.0996 17.7851 13.9517 17.4299 13.6886 17.168C13.4254 16.9061 13.0685 16.7589 12.6964 16.7589C12.3242 16.7589 11.9673 16.9061 11.7041 17.168C11.441 17.4299 11.2932 17.7851 11.2932 18.1555C11.2932 18.5259 11.441 18.8811 11.7041 19.143C11.9673 19.4049 12.3242 19.5521 12.6964 19.5521Z" fill="#F5F0F8"/>
<path d="M12.2284 3.29515e-07C10.1077 -0.000492121 8.02369 0.550989 6.18323 1.59971C4.34278 2.64844 2.80987 4.15794 1.73663 5.97843C0.663396 7.79891 0.0871456 9.86708 0.0650697 11.9777C0.0429937 14.0883 0.57586 16.1679 1.61079 18.0103L0.123377 21.8872C-0.000426304 22.2094 -0.0318305 22.5596 0.0326676 22.8986C0.0971657 23.2376 0.255029 23.5521 0.488647 23.807C0.722265 24.062 1.02245 24.2473 1.35571 24.3423C1.68897 24.4373 2.04221 24.4383 2.376 24.3451L7.02907 23.0473C8.67736 23.8224 10.4796 24.2188 12.3026 24.2071C14.1256 24.1954 15.9226 23.776 17.5608 22.9798C19.1989 22.1837 20.6362 21.0312 21.7664 19.6075C22.8967 18.1839 23.6908 16.5256 24.0902 14.7553C24.4896 12.985 24.4839 11.1479 24.0737 9.38007C23.6635 7.61221 22.8592 5.95876 21.7203 4.54202C20.5814 3.12528 19.137 1.98151 17.494 1.19531C15.851 0.409111 14.0515 0.000601939 12.2284 3.29515e-07ZM1.9382 12.1037C1.93903 9.87181 2.67237 7.70131 4.02664 5.92241C5.38091 4.14351 7.28197 2.8536 9.44057 2.24893C11.5992 1.64427 13.8972 1.75795 15.9849 2.57268C18.0726 3.38742 19.8357 4.8586 21.0061 6.76239C22.1764 8.66619 22.6899 10.8984 22.4683 13.1193C22.2468 15.3403 21.3024 17.4284 19.7788 19.066C18.2551 20.7036 16.2357 21.801 14.0278 22.1913C11.8199 22.5815 9.54433 22.2433 7.54732 21.228L7.22178 21.0604L1.87085 22.5519L3.6838 17.8296L3.44432 17.4386C2.45673 15.8329 1.93541 13.9863 1.9382 12.1037Z" fill="#F5F0F8"/>
<path d="M17.7718 29.7937C16.0212 29.7956 14.291 29.4205 12.6998 28.6941C11.1086 27.9676 9.69417 26.9071 8.55365 25.5853C9.607 25.8702 10.7109 26.0341 11.8465 26.0639C13.5796 27.2822 15.6501 27.9348 17.7718 27.9316C19.4594 27.9316 21.0498 27.5275 22.453 26.8143L22.7785 26.6467L28.1294 28.1383L26.3165 23.416L26.556 23.0249C27.5102 21.4719 28.0621 19.6471 28.0621 17.69C28.065 15.6222 27.436 13.6025 26.2585 11.8989C26.2432 10.7911 26.0956 9.68905 25.8188 8.61597C27.1133 9.75043 28.1499 11.1466 28.8593 12.7113C29.5688 14.276 29.9348 15.9733 29.933 17.69C29.933 19.8333 29.3718 21.8481 28.3876 23.5966L29.8769 27.4735C30.0005 27.7956 30.0319 28.1455 29.9674 28.4843C29.903 28.8231 29.7453 29.1374 29.5119 29.3922C29.2786 29.647 28.9787 29.8324 28.6458 29.9276C28.3128 30.0228 27.9598 30.0242 27.6262 29.9315L22.9712 28.6336C21.394 29.3784 19.6297 29.7937 17.77 29.7937H17.7718Z" fill="#F5F0F8"/>
</svg>
