<svg width="16" height="20" viewBox="0 0 16 20" fill="none" xmlns="http://www.w3.org/2000/svg">
<path fill-rule="evenodd" clip-rule="evenodd" d="M11.3 0.33018L15.74 5.33018C15.9067 5.51358 15.9994 5.75234 16 6.00018V17.5002C15.9961 17.8324 15.9268 18.1607 15.796 18.4661C15.6652 18.7716 15.4755 19.0483 15.2378 19.2804C15.0001 19.5126 14.719 19.6956 14.4105 19.8191C14.102 19.9426 13.7723 20.0041 13.44 20.0002H2.56C2.22775 20.0041 1.89797 19.9426 1.5895 19.8191C1.28103 19.6956 0.999904 19.5126 0.762182 19.2804C0.524459 19.0483 0.334794 18.7716 0.204018 18.4661C0.0732421 18.1607 0.00391638 17.8324 0 17.5002V2.50018C0.00391638 2.16793 0.0732421 1.8397 0.204018 1.53425C0.334794 1.22879 0.524459 0.952085 0.762182 0.719934C0.999904 0.487783 1.28103 0.304732 1.5895 0.181236C1.89797 0.05774 2.22775 -0.00378312 2.56 0.000179976H10.56C10.6995 0.000509805 10.8375 0.0300414 10.9649 0.0868754C11.0924 0.143709 11.2065 0.226587 11.3 0.33018ZM10.1811 5.72043C10.3139 5.87942 10.5038 5.97988 10.71 6.00018H13.74L10 2.00018V5.15018C9.98327 5.35666 10.0483 5.56144 10.1811 5.72043ZM2.26474 8.18696C2.14503 8.30667 2.07777 8.46904 2.07777 8.63833V10.7661C2.07777 10.9354 2.14503 11.0978 2.26474 11.2175C2.38445 11.3372 2.54681 11.4044 2.71611 11.4044H3.14166V13.6939L1.62669 15.2089C1.50715 15.3286 1.44 15.4908 1.44 15.66C1.44 15.8292 1.50715 15.9914 1.62669 16.1111L3.32891 17.8133C3.4486 17.9329 3.61084 18 3.78 18C3.94916 18 4.1114 17.9329 4.23109 17.8133L5.74607 16.2983H8.03556V16.7239C8.03556 16.8932 8.10281 17.0556 8.22252 17.1753C8.34223 17.295 8.50459 17.3622 8.67389 17.3622H10.8017C10.971 17.3622 11.1333 17.295 11.253 17.1753C11.3728 17.0556 11.44 16.8932 11.44 16.7239V14.5961C11.44 14.4268 11.3728 14.2645 11.253 14.1447C11.1333 14.025 10.971 13.9578 10.8017 13.9578H8.67389C8.50459 13.9578 8.34223 14.025 8.22252 14.1447C8.10281 14.2645 8.03556 14.4268 8.03556 14.5961V15.0217H5.74607L4.41833 13.6939V11.4044H4.84389C5.01318 11.4044 5.17555 11.3372 5.29526 11.2175C5.41497 11.0978 5.48222 10.9354 5.48222 10.7661V8.63833C5.48222 8.46904 5.41497 8.30667 5.29526 8.18696C5.17555 8.06725 5.01318 8 4.84389 8H2.71611C2.54681 8 2.38445 8.06725 2.26474 8.18696Z" fill="white"/>
</svg>
