<svg width="28" height="24" viewBox="0 0 28 24" fill="none" xmlns="http://www.w3.org/2000/svg">
<path fill-rule="evenodd" clip-rule="evenodd" d="M9.02605 13.9436C8.79144 13.9575 8.65981 13.9916 8.61026 14.0132C8.11936 14.2378 6.50805 14.8224 5.42017 15.2119V20.7093C5.97766 20.6838 6.60484 20.6621 6.95714 20.676C8.52276 20.7388 9.70511 21.1035 10.81 21.4542L10.9076 21.4852C11.9746 21.8243 12.9703 22.141 14.2796 22.2401C14.6815 22.2711 15.0322 22.3059 15.3605 22.3392C15.7507 22.3824 16.1418 22.4157 16.5336 22.4391C17.1995 22.4732 17.7105 22.4368 18.124 22.285C18.635 22.0976 20.4779 21.2359 22.3284 20.2966C23.1828 19.8666 24.0275 19.4177 24.8619 18.9501C25.1676 18.7791 25.4685 18.5994 25.764 18.4112C26.0172 18.2463 26.1395 18.148 26.1728 18.1139C26.3106 17.9722 26.4089 17.5812 26.2285 17.2289C26.1031 16.9834 25.7531 16.6242 24.7698 16.7868C23.6316 16.9749 22.2781 17.5301 20.9486 18.0752C20.3036 18.34 19.6618 18.6025 19.0942 18.7922C18.5491 18.9741 17.9637 19.1282 17.462 19.098C16.7341 19.0539 15.4519 18.8619 14.388 18.6884C13.7776 18.5888 13.168 18.4846 12.5592 18.3756L12.4407 18.3547L12.3997 18.347L12.5383 17.5851L12.3989 18.347L12.5475 16.8108L16.6978 16.8611C16.7016 16.8611 16.707 16.8611 16.7148 16.8596C16.7427 16.8572 16.7984 16.8503 16.8789 16.8294C17.0369 16.7883 17.2971 16.6923 17.6192 16.4616C17.7307 16.3818 17.8669 16.2432 17.99 16.0636C18.0907 15.9165 18.1658 15.7686 18.2099 15.6431C17.5913 15.6253 16.9842 15.5216 16.5313 15.4225C16.2652 15.3642 16.0012 15.2966 15.74 15.2196L15.7043 15.2088L10.6203 14.0682H10.6188C10.538 14.0538 10.4569 14.0409 10.3756 14.0295C10.2115 14.0055 9.98618 13.9769 9.74228 13.9575C9.5041 13.9372 9.26484 13.9326 9.02605 13.9436V13.9436ZM10.7744 13.3086L10.9161 12.5483L10.93 12.5506L16.1085 13.712L16.1403 13.7229L16.1496 13.726L16.1852 13.7368L16.3307 13.7786C16.4585 13.8143 16.6428 13.8615 16.8619 13.9095C17.3063 14.0071 17.8669 14.0969 18.3904 14.0969C18.8735 14.0969 19.3729 14.2773 19.6401 14.7666C19.8693 15.1863 19.8158 15.6478 19.7299 15.9668C19.623 16.3648 19.4016 16.7829 19.1205 17.1383C19.4999 16.9951 19.9149 16.8255 20.3609 16.6427L20.4562 16.604C21.7129 16.0876 23.2026 15.4759 24.5166 15.2591C26.0187 15.0105 27.1112 15.5556 27.6068 16.5227C28.0481 17.3837 27.9459 18.5134 27.2816 19.194C27.1151 19.3652 26.8611 19.5448 26.6064 19.7097C26.2853 19.9152 25.9584 20.1114 25.6261 20.2982C24.7708 20.7773 23.9049 21.2373 23.0292 21.678C21.1933 22.6095 19.2684 23.5154 18.6567 23.7391C17.9475 23.9985 17.1856 24.0233 16.4539 23.9854C16.0122 23.9579 15.5713 23.9205 15.1314 23.8731C14.7984 23.8398 14.467 23.8073 14.1635 23.7841C12.6707 23.671 11.5247 23.3063 10.4701 22.971L10.3416 22.93C9.25215 22.5839 8.2386 22.2773 6.8952 22.2231C6.43836 22.2053 5.30248 22.2641 4.69078 22.2997L3.87158 22.3477V14.1193L4.38649 13.9366C5.43565 13.5634 7.46972 12.8317 7.9676 12.6048C8.27886 12.4631 8.63891 12.4151 8.93701 12.3973C9.24546 12.3823 9.55456 12.3877 9.86229 12.4136C10.2066 12.441 10.5495 12.4844 10.8898 12.5436L10.9084 12.5467L10.913 12.5475H10.9161L10.7744 13.3094V13.3086Z" fill="#4C4C4C"/>
<path fill-rule="evenodd" clip-rule="evenodd" d="M0 13.9373C0 13.5265 0.163154 13.1327 0.453571 12.8422C0.743987 12.5518 1.13788 12.3887 1.54859 12.3887H3.87147C4.28218 12.3887 4.67607 12.5518 4.96648 12.8422C5.2569 13.1327 5.42005 13.5265 5.42005 13.9373V22.4514C5.42005 22.8621 5.2569 23.256 4.96648 23.5464C4.67607 23.8368 4.28218 24 3.87147 24H1.54859C1.13788 24 0.743987 23.8368 0.453571 23.5464C0.163154 23.256 0 22.8621 0 22.4514V13.938V13.9373ZM1.54859 13.9373V22.4514H3.87147V13.938H1.54859V13.9373Z" fill="#4C4C4C"/>
<path fill-rule="evenodd" clip-rule="evenodd" d="M12.3887 0C9.82295 0 7.74292 2.08003 7.74292 4.64576C7.74292 7.21149 9.82295 9.29152 12.3887 9.29152C14.9544 9.29152 17.0344 7.21149 17.0344 4.64576C17.0344 2.08003 14.9544 0 12.3887 0ZM12.811 6.33513C12.811 6.44714 12.7665 6.55457 12.6873 6.63377C12.6081 6.71297 12.5007 6.75747 12.3887 6.75747C12.2767 6.75747 12.1692 6.71297 12.09 6.63377C12.0108 6.55457 11.9663 6.44714 11.9663 6.33513V5.0681H10.6993C10.5873 5.0681 10.4799 5.02361 10.4007 4.9444C10.3215 4.8652 10.277 4.75777 10.277 4.64576C10.277 4.53375 10.3215 4.42632 10.4007 4.34712C10.4799 4.26792 10.5873 4.22342 10.6993 4.22342H11.9663V2.95639C11.9663 2.84438 12.0108 2.73696 12.09 2.65775C12.1692 2.57855 12.2767 2.53405 12.3887 2.53405C12.5007 2.53405 12.6081 2.57855 12.6873 2.65775C12.7665 2.73696 12.811 2.84438 12.811 2.95639V4.22342H14.078C14.1901 4.22342 14.2975 4.26792 14.3767 4.34712C14.4559 4.42632 14.5004 4.53375 14.5004 4.64576C14.5004 4.75777 14.4559 4.8652 14.3767 4.9444C14.2975 5.02361 14.1901 5.0681 14.078 5.0681H12.811V6.33513Z" fill="#4C4C4C"/>
<path fill-rule="evenodd" clip-rule="evenodd" d="M22.0673 5.42004C20.143 5.42004 18.583 6.98007 18.583 8.90436C18.583 10.8287 20.143 12.3887 22.0673 12.3887C23.9916 12.3887 25.5516 10.8287 25.5516 8.90436C25.5516 6.98007 23.9916 5.42004 22.0673 5.42004ZM22.3841 10.1714C22.3841 10.2554 22.3507 10.336 22.2913 10.3954C22.2319 10.4548 22.1513 10.4881 22.0673 10.4881C21.9833 10.4881 21.9028 10.4548 21.8433 10.3954C21.7839 10.336 21.7506 10.2554 21.7506 10.1714V9.22112H20.8003C20.7163 9.22112 20.6357 9.18775 20.5763 9.12835C20.5169 9.06894 20.4835 8.98837 20.4835 8.90436C20.4835 8.82036 20.5169 8.73979 20.5763 8.68038C20.6357 8.62098 20.7163 8.58761 20.8003 8.58761H21.7506V7.63734C21.7506 7.55333 21.7839 7.47276 21.8433 7.41336C21.9028 7.35396 21.9833 7.32058 22.0673 7.32058C22.1513 7.32058 22.2319 7.35396 22.2913 7.41336C22.3507 7.47276 22.3841 7.55333 22.3841 7.63734V8.58761H23.3344C23.4184 8.58761 23.4989 8.62098 23.5583 8.68038C23.6177 8.73979 23.6511 8.82036 23.6511 8.90436C23.6511 8.98837 23.6177 9.06894 23.5583 9.12835C23.4989 9.18775 23.4184 9.22112 23.3344 9.22112H22.3841V10.1714Z" fill="#4C4C4C"/>
</svg>
