<svg width="17" height="16" viewBox="0 0 17 16" fill="none" xmlns="http://www.w3.org/2000/svg">
<path fill-rule="evenodd" clip-rule="evenodd" d="M4.00342 0C2.94164 0 1.92336 0.421427 1.17257 1.17157C0.421787 1.92172 0 2.93913 0 4V12C0 13.0609 0.421787 14.0783 1.17257 14.8284C1.92336 15.5786 2.94164 16 4.00342 16H12.0102C13.072 16 14.0903 15.5786 14.8411 14.8284C15.5919 14.0783 16.0137 13.0609 16.0137 12V4C16.0137 2.93913 15.5919 1.92172 14.8411 1.17157C14.0903 0.421427 13.072 0 12.0102 0H4.00342ZM10.9934 6.9472C11.0653 6.87051 11.1214 6.78041 11.1585 6.68206C11.1955 6.58371 11.2129 6.47902 11.2094 6.37398C11.206 6.26894 11.1819 6.1656 11.1385 6.06986C11.0951 5.97412 11.0333 5.88786 10.9565 5.816C10.8798 5.74414 10.7896 5.68809 10.6912 5.65105C10.5927 5.61401 10.488 5.5967 10.3828 5.60012C10.2777 5.60354 10.1743 5.62761 10.0785 5.67097C9.98264 5.71432 9.8963 5.77611 9.82438 5.8528L7.35588 8.4848L6.13643 7.4024C5.97667 7.2697 5.77152 7.20424 5.56435 7.21985C5.35717 7.23547 5.16418 7.33094 5.02615 7.4861C4.88811 7.64125 4.81585 7.84394 4.82461 8.05134C4.83338 8.25875 4.92249 8.45463 5.07313 8.5976L6.87466 10.1976C7.03055 10.3359 7.23429 10.4081 7.44258 10.3987C7.65087 10.3893 7.84727 10.299 7.99002 10.1472L10.9926 6.9472H10.9934Z" fill="#D93438"/>
</svg>
