<svg width="24" height="25.5" viewBox="0 0 24.341669 25.929168" xmlns="http://www.w3.org/2000/svg">
   <g transform="translate(292.65667,484.77776)">
      <path clipRule="evenodd" fill="#4d4d4d" fillRule="evenodd" strokeWidth="0.5" d="m -276.09024,-475.18634 c -0.13156,0 -0.26131,0.0257 -0.38281,0.0762 -0.12143,0.0504 -0.23326,0.1255 -0.32617,0.21875 l -3.79102,3.79297 -1.54296,-1.54297 c -0.0929,-0.0929 -0.20291,-0.16647 -0.32422,-0.2168 v -0.002 c -0.12129,-0.0501 -0.25124,-0.0762 -0.38282,-0.0762 -0.13156,0 -0.26152,0.0279 -0.38281,0.0781 -0.12131,0.0503 -0.23127,0.12389 -0.32422,0.2168 -0.093,0.093 -0.1665,0.20278 -0.21679,0.32422 -0.0503,0.12145 -0.0781,0.25137 -0.0781,0.38281 0,0.13144 0.0278,0.26135 0.0781,0.38281 0.0503,0.12144 0.12381,0.23127 0.21679,0.32422 l 2.24805,2.25 c 0.0928,0.0931 0.20459,0.1683 0.32617,0.21875 0.12157,0.0504 0.25135,0.0762 0.38281,0.0762 0.1314,0 0.26124,-0.0257 0.38282,-0.0762 0.12158,-0.0505 0.23139,-0.12579 0.32422,-0.21875 l 4.5,-4.5 c 0.093,-0.0928 0.16833,-0.20259 0.21874,-0.32422 0.0504,-0.12141 0.0762,-0.25122 0.0762,-0.38281 0,-0.1316 -0.0258,-0.26139 -0.0762,-0.38281 -0.0504,-0.12149 -0.1257,-0.23135 -0.21874,-0.32422 -0.0929,-0.0931 -0.20279,-0.16835 -0.32422,-0.21875 -0.1215,-0.0504 -0.25132,-0.0762 -0.38282,-0.0762 z" />
      <path fill="#4d4d4d" strokeWidth="0.5" d="m -287.34024,-484.18439 c -0.86185,0 -1.6894,0.34175 -2.29882,0.95117 -0.60943,0.60943 -0.95118,1.43697 -0.95118,2.29883 v 1.75 h 2 v -1.75 c 0,-0.33161 0.13076,-0.65028 0.36524,-0.88477 0.23448,-0.23448 0.55315,-0.36523 0.88476,-0.36523 h 15 c 0.33159,0 0.6503,0.13076 0.88477,0.36523 0.23447,0.23448 0.36523,0.55314 0.36523,0.88477 v 18 c 0,0.3316 -0.13077,0.6503 -0.36523,0.88476 -0.23446,0.23447 -0.55316,0.36524 -0.88477,0.36524 h -15 c -0.33162,0 -0.65029,-0.13076 -0.88476,-0.36524 -0.23447,-0.23447 -0.36524,-0.55318 -0.36524,-0.88476 v -1.75 h -2 v 1.75 c 0,0.86181 0.34174,1.68941 0.95118,2.29883 0.60942,0.60941 1.43696,0.95117 2.29882,0.95117 h 15 c 0.86182,0 1.68941,-0.34176 2.29883,-0.95117 0.60942,-0.60942 0.95117,-1.43701 0.95117,-2.29883 v -18 c 0,-0.86186 -0.34176,-1.68941 -0.95117,-2.29883 -0.60942,-0.60943 -1.43702,-0.95117 -2.29883,-0.95117 z" />
      <path fill="#4d4d4d" strokeWidth="0.5" d="m -289.59024,-469.18439 c -0.2651,0 -0.51955,0.10542 -0.70703,0.29297 -0.18751,0.18745 -0.29297,0.44191 -0.29297,0.70703 v 0.5 h -0.5 c -0.2651,0 -0.51955,0.10542 -0.70703,0.29297 -0.18752,0.18745 -0.29297,0.44192 -0.29297,0.70703 0,0.26511 0.10545,0.51958 0.29297,0.70703 0.18748,0.18754 0.44193,0.29297 0.70703,0.29297 h 3 c 0.26511,0 0.51956,-0.10542 0.70704,-0.29297 0.18751,-0.18745 0.29296,-0.44192 0.29296,-0.70703 0,-0.26512 -0.10545,-0.51958 -0.29296,-0.70703 -0.18748,-0.18755 -0.44193,-0.29297 -0.70704,-0.29297 h -0.5 v -0.5 c 0,-0.26512 -0.10545,-0.51958 -0.29296,-0.70703 -0.18748,-0.18755 -0.44193,-0.29297 -0.70704,-0.29297 z" />
      <path fill="#4d4d4d" strokeWidth="0.5" d="m -289.59024,-473.68439 c -0.2651,0 -0.51955,0.10542 -0.70703,0.29297 -0.18751,0.18745 -0.29297,0.44191 -0.29297,0.70703 v 0.5 h -0.5 c -0.2651,0 -0.51955,0.10542 -0.70703,0.29297 -0.18752,0.18745 -0.29297,0.44192 -0.29297,0.70703 0,0.26511 0.10545,0.51958 0.29297,0.70703 0.18748,0.18754 0.44193,0.29297 0.70703,0.29297 h 3 c 0.26511,0 0.51956,-0.10542 0.70704,-0.29297 0.18751,-0.18745 0.29296,-0.44192 0.29296,-0.70703 0,-0.26512 -0.10545,-0.51958 -0.29296,-0.70703 -0.18748,-0.18755 -0.44193,-0.29297 -0.70704,-0.29297 h -0.5 v -0.5 c 0,-0.26512 -0.10545,-0.51958 -0.29296,-0.70703 -0.18748,-0.18755 -0.44193,-0.29297 -0.70704,-0.29297 z" />
      <path fill="#4d4d4d" strokeWidth="0.5" d="m -289.59024,-478.18439 c -0.26512,0 -0.51956,0.1055 -0.70703,0.29297 -0.18747,0.18747 -0.29297,0.44191 -0.29297,0.70703 v 0.5 h -0.5 c -0.26512,0 -0.51956,0.1055 -0.70703,0.29297 -0.18747,0.18747 -0.29297,0.44191 -0.29297,0.70703 0,0.26512 0.1055,0.51956 0.29297,0.70703 0.18747,0.18746 0.44191,0.29297 0.70703,0.29297 h 3 c 0.26512,0 0.51957,-0.1055 0.70704,-0.29297 0.18746,-0.18747 0.29296,-0.44191 0.29296,-0.70703 0,-0.26512 -0.1055,-0.51956 -0.29296,-0.70703 -0.18747,-0.18747 -0.44192,-0.29297 -0.70704,-0.29297 h -0.5 v -0.5 c 0,-0.26512 -0.1055,-0.51956 -0.29296,-0.70703 -0.18747,-0.18747 -0.44192,-0.29297 -0.70704,-0.29297 z" />
    </g>
</svg>
