<svg width="19" height="15" viewBox="0 0 19 15" fill="none" version="1.1" xmlns="http://www.w3.org/2000/svg">
  <path fill="#807e80" strokeLinecap="round" strokeLinejoin="round" d="M 3.0253906,0.25 C 1.722551,0.25 0.65039063,1.3221604 0.65039062,2.625 v 9.75 c 0,1.302867 1.07218838,2.375 2.37499998,2.375 H 16.025391 c 1.302784,0 2.375,-1.072105 2.375,-2.375 v -9.75 c 0,-1.3028676 -1.072188,-2.375 -2.375,-2.375 z m 0,1.5 H 16.025391 c 0.484585,0 0.875,0.3903694 0.875,0.875 v 9.75 c 0,0.484704 -0.390387,0.875 -0.875,0.875 H 3.0253906 c -0.4846866,0 -0.875,-0.390269 -0.875,-0.875 v -9.75 c 0,-0.4846586 0.3903414,-0.875 0.875,-0.875 z" />
  <path fill="#807e80" strokeLinecap="round" strokeLinejoin="round" d="M 1.2695312,1.8867187 A 0.75,0.75 0 0 0 0.78515625,2.1953125 0.75,0.75 0 0 0 0.97070313,3.2402344 l 8.12499997,5.6875 a 0.750075,0.750075 0 0 0 0.859375,0 l 8.1249999,-5.6875 A 0.75,0.75 0 0 0 18.265625,2.1953125 0.75,0.75 0 0 0 17.220703,2.0097656 L 9.5253906,7.3964844 1.8300781,2.0097656 A 0.75,0.75 0 0 0 1.2695312,1.8867187 Z" />
</svg>
