<svg width="18" height="20" viewBox="0 0 18 20" fill="none" xmlns="http://www.w3.org/2000/svg">
<path d="M4.50293 11.002C4.37032 11.002 4.24314 11.0546 4.14938 11.1484C4.05561 11.2422 4.00293 11.3693 4.00293 11.502V14.502C4.00293 14.6346 4.05561 14.7617 4.14938 14.8555C4.24314 14.9493 4.37032 15.002 4.50293 15.002C4.63554 15.002 4.76272 14.9493 4.85648 14.8555C4.95025 14.7617 5.00293 14.6346 5.00293 14.502V14.002H5.49993C5.89775 14.002 6.27929 13.8439 6.56059 13.5626C6.84189 13.2813 6.99993 12.8998 6.99993 12.502C6.99993 12.1041 6.84189 11.7226 6.56059 11.4413C6.27929 11.16 5.89775 11.002 5.49993 11.002H4.50293ZM5.49993 13.002H5.00293V12.002H5.49993C5.63254 12.002 5.75972 12.0546 5.85348 12.1484C5.94725 12.2422 5.99993 12.3693 5.99993 12.502C5.99993 12.6346 5.94725 12.7617 5.85348 12.8555C5.75972 12.9493 5.63254 13.002 5.49993 13.002Z" fill="white"/>
<path d="M11.9981 11.501C11.9984 11.3685 12.0512 11.2416 12.1449 11.148C12.2387 11.0545 12.3657 11.002 12.4981 11.002H14.0031C14.1357 11.002 14.2629 11.0546 14.3567 11.1484C14.4504 11.2422 14.5031 11.3693 14.5031 11.502C14.5031 11.6346 14.4504 11.7617 14.3567 11.8555C14.2629 11.9493 14.1357 12.002 14.0031 12.002H12.9971L12.9961 13.004H14.0031C14.1357 13.004 14.2629 13.0566 14.3567 13.1504C14.4504 13.2442 14.5031 13.3713 14.5031 13.504C14.5031 13.6366 14.4504 13.7637 14.3567 13.8575C14.2629 13.9513 14.1357 14.004 14.0031 14.004H12.9961L12.9981 14.501C12.9982 14.5666 12.9854 14.6317 12.9604 14.6924C12.9354 14.7531 12.8987 14.8083 12.8524 14.8548C12.7588 14.9488 12.6317 15.0017 12.4991 15.002C12.3665 15.0022 12.2392 14.9498 12.1453 14.8562C12.0513 14.7626 11.9984 14.6356 11.9981 14.503L11.9951 13.505V13.503L11.9981 11.501Z" fill="white"/>
<path d="M8.5 11.002C8.36739 11.002 8.24021 11.0546 8.14645 11.1484C8.05268 11.2422 8 11.3693 8 11.502V14.502C8 14.6346 8.05268 14.7617 8.14645 14.8555C8.24021 14.9493 8.36739 15.002 8.5 15.002H8.998C9.52843 15.002 10.0371 14.7912 10.4122 14.4162C10.7873 14.0411 10.998 13.5324 10.998 13.002C10.998 12.4715 10.7873 11.9628 10.4122 11.5877C10.0371 11.2127 9.52843 11.002 8.998 11.002H8.5ZM9 14.002V12.002C9.26522 12.002 9.51957 12.1073 9.70711 12.2948C9.89464 12.4824 10 12.7367 10 13.002C10 13.2672 9.89464 13.5215 9.70711 13.7091C9.51957 13.8966 9.26522 14.002 9 14.002Z" fill="white"/>
<path d="M17 18V16.836C17.591 16.555 18 15.952 18 15.254V10.75C18 10.052 17.591 9.45 17 9.168V7.828C16.9999 7.29761 16.7891 6.78899 16.414 6.414L10.585 0.586C10.5695 0.571627 10.5532 0.558266 10.536 0.546C10.5236 0.53645 10.5116 0.526443 10.5 0.516C10.4312 0.451071 10.358 0.39093 10.281 0.336C10.2554 0.319482 10.2287 0.304779 10.201 0.292L10.153 0.268L10.103 0.239C10.049 0.208 9.994 0.176 9.937 0.152C9.73786 0.0724632 9.52711 0.0258544 9.313 0.0139999C9.293 0.0129999 9.273 0.00999997 9.254 0.00699997C9.22686 0.00280811 9.19946 0.000469395 9.172 0H3C2.46957 0 1.96086 0.210714 1.58579 0.585786C1.21071 0.960859 1 1.46957 1 2V9.168C0.409 9.449 0 10.052 0 10.75V15.254C0 15.952 0.409 16.554 1 16.836V18C1 18.5304 1.21071 19.0391 1.58579 19.4142C1.96086 19.7893 2.46957 20 3 20H15C15.5304 20 16.0391 19.7893 16.4142 19.4142C16.7893 19.0391 17 18.5304 17 18ZM15 18.5H3C2.86739 18.5 2.74021 18.4473 2.64645 18.3536C2.55268 18.2598 2.5 18.1326 2.5 18V17.004H15.5V18C15.5 18.1326 15.4473 18.2598 15.3536 18.3536C15.2598 18.4473 15.1326 18.5 15 18.5ZM15.5 8V9H2.5V2C2.5 1.86739 2.55268 1.74021 2.64645 1.64645C2.74021 1.55268 2.86739 1.5 3 1.5H9V6C9 6.53043 9.21071 7.03914 9.58579 7.41421C9.96086 7.78929 10.4696 8 11 8H15.5ZM14.378 6.5H11C10.8674 6.5 10.7402 6.44732 10.6464 6.35355C10.5527 6.25979 10.5 6.13261 10.5 6V2.621L14.378 6.5ZM1.75 10.5H16.25C16.3163 10.5 16.3799 10.5263 16.4268 10.5732C16.4737 10.6201 16.5 10.6837 16.5 10.75V15.254C16.5 15.3203 16.4737 15.3839 16.4268 15.4308C16.3799 15.4777 16.3163 15.504 16.25 15.504H1.75C1.6837 15.504 1.62011 15.4777 1.57322 15.4308C1.52634 15.3839 1.5 15.3203 1.5 15.254V10.75C1.5 10.6837 1.52634 10.6201 1.57322 10.5732C1.62011 10.5263 1.6837 10.5 1.75 10.5Z" fill="white"/>
</svg>
