<svg width="22" height="28" viewBox="0 0 22 28" fill="none" version="1.1" xmlns="http://www.w3.org/2000/svg">
  <path d="M 4.6660156,0.875 C 3.6608345,0.875 2.697096,1.2755602 1.9863281,1.9863281 1.2755602,2.697096 0.875,3.6608345 0.875,4.6660156 V 23.333984 c 0,1.00521 0.4005443,1.968904 1.1113281,2.679688 C 2.6970608,26.724262 3.6607815,27.125 4.6660156,27.125 H 18 c 1.005205,0 1.970892,-0.400722 2.681641,-1.111328 0.710757,-0.710757 1.109375,-1.674425 1.109375,-2.679688 v -12.78125 a 1.1251125,1.1251125 0 0 0 0,-0.002 C 21.790831,9.8993791 21.533111,9.2750962 21.072266,8.8144531 l -7.21875,-7.21875 C 13.392984,1.1350426 12.76672,0.87514739 12.115234,0.875 Z m 0,2.25 h 7.4492184 c 0.05571,1.26e-5 0.107017,0.021068 0.146485,0.060547 l 7.21875,7.2187501 c 0.03935,0.03934 0.06053,0.09264 0.06055,0.148437 v 12.78125 c 0,0.409336 -0.161731,0.800402 -0.451172,1.089844 C 18.800393,24.713221 18.409193,24.875 18,24.875 H 4.6660156 C 4.2567512,24.875 3.8656382,24.713237 3.5761719,24.423828 3.2867567,24.134413 3.125,23.743373 3.125,23.333984 V 4.6660156 C 3.125,4.2566982 3.2867408,3.865603 3.5761719,3.5761719 3.865603,3.2867408 4.2566982,3.125 4.6660156,3.125 Z m 10.6679684,8.431641 a 1.1251125,1.1251125 0 0 0 -1.125,1.109375 v 8 a 1.1251125,1.1251125 0 0 0 2.25,0 v -8 a 1.1251125,1.1251125 0 0 0 -1.125,-1.109375 z m -4,2.667968 a 1.1251125,1.1251125 0 0 0 -1.125,1.109375 v 5.332032 a 1.1251125,1.1251125 0 0 0 1.125,1.109375 1.1251125,1.1251125 0 0 0 1.125,-1.109375 v -5.332032 a 1.1251125,1.1251125 0 0 0 -1.125,-1.109375 z M 7.3339844,16.890625 A 1.1251125,1.1251125 0 0 0 6.2089844,18 v 2.666016 a 1.1251125,1.1251125 0 0 0 2.25,0 V 18 a 1.1251125,1.1251125 0 0 0 -1.125,-1.109375 z" fill="#4c4c4c" />
</svg>
