<svg width="24" height="12" viewBox="0 0 24 12" fill="none" xmlns="http://www.w3.org/2000/svg">
<path d="M6 0H18C19.5913 0 21.1174 0.632141 22.2426 1.75736C23.3679 2.88258 24 4.4087 24 6C24 7.5913 23.3679 9.11742 22.2426 10.2426C21.1174 11.3679 19.5913 12 18 12H6C4.4087 12 2.88258 11.3679 1.75736 10.2426C0.632139 9.11742 0 7.5913 0 6C0 4.4087 0.632139 2.88258 1.75736 1.75736C2.88258 0.632141 4.4087 0 6 0ZM6 9.6C6.95478 9.6 7.87045 9.22072 8.54558 8.54559C9.22072 7.87045 9.6 6.95478 9.6 6C9.6 5.04522 9.22072 4.12955 8.54558 3.45442C7.87045 2.77928 6.95478 2.4 6 2.4C5.04522 2.4 4.12955 2.77928 3.45441 3.45442C2.77928 4.12955 2.4 5.04522 2.4 6C2.4 6.95478 2.77928 7.87045 3.45441 8.54559C4.12955 9.22072 5.04522 9.6 6 9.6Z" fill="#807E80"/>
</svg>
