<svg width="31" height="30" viewBox="0 0 31 30" fill="none" xmlns="http://www.w3.org/2000/svg">
<path d="M27.8331 6.93732C23.3331 -0.000229331 14.1455 -2.06274 7.02045 2.24979C0.0829001 6.56232 -2.16712 15.9374 2.33292 22.8749L2.70792 23.4375L1.20791 29.0625L6.83295 27.5625L7.39546 27.9375C9.83297 29.25 12.458 30 15.083 30C17.8955 30 20.7081 29.25 23.1456 27.75C30.0831 23.2499 32.1456 14.0624 27.8331 6.93732ZM23.8956 21.3749C23.1456 22.4999 22.2081 23.2499 20.8956 23.4375C20.1456 23.4375 19.208 23.8125 15.458 22.3124C12.2705 20.8124 9.64547 18.3749 7.77046 15.5624C6.64545 14.2499 6.08295 12.5624 5.89544 10.8749C5.89544 9.37484 6.45795 8.06233 7.39546 7.12483C7.77046 6.74982 8.14546 6.56232 8.52046 6.56232H9.45797C9.83297 6.56232 10.208 6.56232 10.3955 7.31233C10.7705 8.24983 11.708 10.4999 11.708 10.6874C11.8955 10.8749 11.8955 11.2499 11.708 11.4374C11.8955 11.8124 11.708 12.1874 11.5205 12.3749C11.333 12.5624 11.1455 12.9374 10.958 13.1249C10.583 13.3124 10.3955 13.6874 10.583 14.0624C11.333 15.1874 12.2705 16.3124 13.208 17.2499C14.333 18.1874 15.458 18.9374 16.7705 19.4999C17.1455 19.6874 17.5205 19.6874 17.708 19.3124C17.8955 18.9374 18.833 17.9999 19.208 17.6249C19.583 17.2499 19.7705 17.2499 20.1456 17.4374L23.1456 18.9374C23.5206 19.1249 23.8956 19.3124 24.0831 19.4999C24.2706 20.0624 24.2706 20.8124 23.8956 21.3749Z" fill="#D93438"/>
</svg>
