<svg width="26" height="24" viewBox="0 0 26 24" fill="none" xmlns="http://www.w3.org/2000/svg">
<path d="M4.98352 0.00199326C3.66181 0.00199326 2.39423 0.527041 1.45964 1.46163C0.525048 2.39622 0 3.6638 0 4.98552V16.946C0 18.2677 0.525048 19.5353 1.45964 20.4699C2.39423 21.4044 3.66181 21.9295 4.98352 21.9295H13.5173C13.5831 21.4989 13.7266 21.0723 13.9578 20.6736L14.3844 19.9361H4.98352C4.19049 19.9361 3.42995 19.621 2.86919 19.0603C2.30844 18.4995 1.99341 17.739 1.99341 16.946V5.98023H19.9341V8.36036C20.5696 8.10907 21.2443 7.97143 21.9275 7.9537V4.98352C21.9275 3.66181 21.4024 2.39423 20.4679 1.45964C19.5333 0.525048 18.2657 0 16.944 0H4.98352V0.00199326ZM2.16086 3.98682C2.36706 3.40359 2.74907 2.89867 3.25426 2.54165C3.75944 2.18463 4.36292 1.99308 4.98153 1.99341H16.942C17.5602 1.9935 18.1633 2.18524 18.6681 2.54223C19.1729 2.89922 19.5546 3.40391 19.7607 3.98682H2.16086Z" fill="#4C4C4C"/>
<path d="M16.7765 11.3823L13.6628 8.26465C13.4749 8.08309 13.2231 7.98263 12.9618 7.9849C12.7004 7.98717 12.4504 8.09199 12.2656 8.27679C12.0808 8.46159 11.976 8.71157 11.9738 8.97291C11.9715 9.23424 12.0719 9.48601 12.2535 9.67399L15.5347 12.9571L12.2535 16.2383C12.1583 16.3302 12.0824 16.4402 12.0301 16.5618C11.9779 16.6834 11.9504 16.8142 11.9493 16.9465C11.9481 17.0789 11.9733 17.2101 12.0234 17.3326C12.0736 17.4551 12.1476 17.5664 12.2411 17.66C12.3347 17.7536 12.446 17.8276 12.5685 17.8777C12.691 17.9278 12.8222 17.953 12.9546 17.9519C13.0869 17.9507 13.2177 17.9232 13.3393 17.871C13.4609 17.8188 13.5709 17.7428 13.6628 17.6476L16.3898 14.9206C16.1423 13.7286 16.2776 12.4889 16.7765 11.3784V11.3823Z" fill="#4C4C4C"/>
<path d="M9.67406 8.26643C9.86092 8.45334 9.96589 8.70681 9.96589 8.9711C9.96589 9.23539 9.86092 9.48886 9.67406 9.67577L6.39291 12.9589L9.67406 16.2401C9.76926 16.332 9.84519 16.442 9.89743 16.5636C9.94966 16.6852 9.97716 16.816 9.97831 16.9483C9.97946 17.0807 9.95424 17.2119 9.90412 17.3344C9.85401 17.4569 9.78 17.5682 9.68642 17.6618C9.59283 17.7553 9.48155 17.8294 9.35906 17.8795C9.23657 17.9296 9.10532 17.9548 8.97298 17.9537C8.84064 17.9525 8.70985 17.925 8.58825 17.8728C8.46665 17.8205 8.35667 17.7446 8.26472 17.6494L4.27791 13.6626C4.09105 13.4757 3.98608 13.2222 3.98608 12.9579C3.98608 12.6936 4.09105 12.4402 4.27791 12.2532L8.26472 8.26643C8.45163 8.07958 8.7051 7.97461 8.96939 7.97461C9.23368 7.97461 9.48715 8.07958 9.67406 8.26643Z" fill="#4C4C4C"/>
<path d="M20.9726 13.1168L22.7667 10.0071C22.0193 9.86739 21.2472 9.95467 20.5499 10.2577C19.8526 10.5606 19.262 11.0655 18.8541 11.7071C18.4462 12.3487 18.2398 13.0978 18.2613 13.8578C18.2829 14.6178 18.5316 15.3539 18.9752 15.9713L15.6841 21.6725C15.4924 22.0355 15.4489 22.4587 15.5627 22.8532C15.6765 23.2477 15.9387 23.5827 16.2943 23.7878C16.6499 23.993 17.0712 24.0523 17.4696 23.9534C17.8681 23.8544 18.2127 23.6049 18.431 23.2572L21.7301 17.5461C22.4841 17.6142 23.2412 17.4559 23.9048 17.0916C24.5684 16.7272 25.1084 16.1733 25.4556 15.5006C25.8029 14.8279 25.9417 14.067 25.8544 13.315C25.7671 12.563 25.4576 11.8541 24.9654 11.2789L23.1713 14.3866C23.0899 14.5346 22.9797 14.6649 22.8473 14.7698C22.7148 14.8748 22.5627 14.9522 22.4 14.9976C22.2372 15.043 22.0671 15.0554 21.8994 15.0342C21.7318 15.013 21.5701 14.9586 21.4238 14.8741C21.2774 14.7896 21.1495 14.6767 21.0473 14.5421C20.9452 14.4075 20.8709 14.2539 20.8289 14.0902C20.7869 13.9266 20.7779 13.7562 20.8026 13.589C20.8273 13.4219 20.8851 13.2613 20.9726 13.1168Z" fill="#4C4C4C"/>
</svg>
