<svg width="24" height="12" viewBox="0 0 24 12" fill="none" xmlns="http://www.w3.org/2000/svg">
<path d="M18 0H6C4.4087 0 2.88258 0.632141 1.75736 1.75736C0.632141 2.88258 0 4.4087 0 6C0 7.5913 0.632141 9.11742 1.75736 10.2426C2.88258 11.3679 4.4087 12 6 12H18C19.5913 12 21.1174 11.3679 22.2426 10.2426C23.3679 9.11742 24 7.5913 24 6C24 4.4087 23.3679 2.88258 22.2426 1.75736C21.1174 0.632141 19.5913 0 18 0ZM18 9.6C17.0452 9.6 16.1295 9.22072 15.4544 8.54559C14.7793 7.87045 14.4 6.95478 14.4 6C14.4 5.04522 14.7793 4.12955 15.4544 3.45442C16.1295 2.77928 17.0452 2.4 18 2.4C18.9548 2.4 19.8705 2.77928 20.5456 3.45442C21.2207 4.12955 21.6 5.04522 21.6 6C21.6 6.95478 21.2207 7.87045 20.5456 8.54559C19.8705 9.22072 18.9548 9.6 18 9.6Z" fill="#9036F7"/>
</svg>
