<svg width="31" height="24" viewBox="0 0 31 24" fill="none" xmlns="http://www.w3.org/2000/svg">
<path d="M5.45455 6.54545C5.16522 6.54545 4.88774 6.66039 4.68316 6.86497C4.47857 7.06956 4.36364 7.34704 4.36364 7.63636C4.36364 7.92569 4.47857 8.20317 4.68316 8.40775C4.88774 8.61234 5.16522 8.72727 5.45455 8.72727H20.7273C21.0166 8.72727 21.2941 8.61234 21.4987 8.40775C21.7032 8.20317 21.8182 7.92569 21.8182 7.63636C21.8182 7.34704 21.7032 7.06956 21.4987 6.86497C21.2941 6.66039 21.0166 6.54545 20.7273 6.54545H5.45455ZM5.45455 10.9091C5.16522 10.9091 4.88774 11.024 4.68316 11.2286C4.47857 11.4332 4.36364 11.7107 4.36364 12V16.3636C4.36364 16.653 4.47857 16.9304 4.68316 17.135C4.88774 17.3396 5.16522 17.4545 5.45455 17.4545H9.81818C10.1075 17.4545 10.385 17.3396 10.5896 17.135C10.7942 16.9304 10.9091 16.653 10.9091 16.3636V12C10.9091 11.7107 10.7942 11.4332 10.5896 11.2286C10.385 11.024 10.1075 10.9091 9.81818 10.9091H5.45455ZM6.54545 15.2727V13.0909H8.72727V15.2727H6.54545ZM14.1818 10.9091C13.8925 10.9091 13.615 11.024 13.4104 11.2286C13.2058 11.4332 13.0909 11.7107 13.0909 12C13.0909 12.2893 13.2058 12.5668 13.4104 12.7714C13.615 12.976 13.8925 13.0909 14.1818 13.0909H20.7273C21.0166 13.0909 21.2941 12.976 21.4987 12.7714C21.7032 12.5668 21.8182 12.2893 21.8182 12C21.8182 11.7107 21.7032 11.4332 21.4987 11.2286C21.2941 11.024 21.0166 10.9091 20.7273 10.9091H14.1818ZM14.1818 15.2727C13.8925 15.2727 13.615 15.3877 13.4104 15.5922C13.2058 15.7968 13.0909 16.0743 13.0909 16.3636C13.0909 16.653 13.2058 16.9304 13.4104 17.135C13.615 17.3396 13.8925 17.4545 14.1818 17.4545H20.7273C21.0166 17.4545 21.2941 17.3396 21.4987 17.135C21.7032 16.9304 21.8182 16.653 21.8182 16.3636C21.8182 16.0743 21.7032 15.7968 21.4987 15.5922C21.2941 15.3877 21.0166 15.2727 20.7273 15.2727H14.1818ZM0 4.36364C0 3.20633 0.459739 2.09642 1.27808 1.27808C2.09642 0.459739 3.20633 0 4.36364 0H21.8182C22.9755 0 24.0854 0.459739 24.9037 1.27808C25.7221 2.09642 26.1818 3.20633 26.1818 4.36364C27.3391 4.36364 28.449 4.82338 29.2674 5.64172C30.0857 6.46006 30.5455 7.56996 30.5455 8.72727V18.5455C30.5455 19.9921 29.9708 21.3795 28.9479 22.4024C27.9249 23.4253 26.5375 24 25.0909 24H5.45455C4.00791 24 2.62053 23.4253 1.5976 22.4024C0.574674 21.3795 0 19.9921 0 18.5455V4.36364ZM25.0909 18.5455C24.8016 18.5455 24.5241 18.4305 24.3195 18.2259C24.1149 18.0214 24 17.7439 24 17.4545V4.36364C24 3.78498 23.7701 3.23003 23.361 2.82086C22.9518 2.41169 22.3968 2.18182 21.8182 2.18182H4.36364C3.78498 2.18182 3.23003 2.41169 2.82086 2.82086C2.41169 3.23003 2.18182 3.78498 2.18182 4.36364V18.5455C2.18182 19.4134 2.52662 20.2459 3.14038 20.8596C3.75413 21.4734 4.58656 21.8182 5.45455 21.8182H25.0909C25.9589 21.8182 26.7913 21.4734 27.4051 20.8596C28.0188 20.2459 28.3636 19.4134 28.3636 18.5455V8.72727C28.3636 8.14862 28.1338 7.59367 27.7246 7.18449C27.3154 6.77532 26.7605 6.54545 26.1818 6.54545V17.4545C26.1818 17.7439 26.0669 18.0214 25.8623 18.2259C25.6577 18.4305 25.3802 18.5455 25.0909 18.5455Z" fill="#4C4C4C"/>
</svg>
