<svg width="22" height="24" viewBox="0 0 22 24" fill="none" xmlns="http://www.w3.org/2000/svg">
<path d="M10.4615 3.07692C13.2361 3.07692 15.897 4.17912 17.859 6.14104C19.8209 8.10296 20.9231 10.7639 20.9231 13.5385C20.9231 16.313 19.8209 18.974 17.859 20.9359C15.897 22.8978 13.2361 24 10.4615 24C7.68697 24 5.02603 22.8978 3.06411 20.9359C1.10219 18.974 0 16.313 0 13.5385C0 10.7639 1.10219 8.10296 3.06411 6.14104C5.02603 4.17912 7.68697 3.07692 10.4615 3.07692V3.07692ZM10.4615 4.92308C8.1766 4.92308 5.98524 5.83077 4.36954 7.44647C2.75384 9.06216 1.84615 11.2535 1.84615 13.5385C1.84615 15.8234 2.75384 18.0148 4.36954 19.6305C5.98524 21.2462 8.1766 22.1538 10.4615 22.1538C12.7465 22.1538 14.9378 21.2462 16.5535 19.6305C18.1692 18.0148 19.0769 15.8234 19.0769 13.5385C19.0769 11.2535 18.1692 9.06216 16.5535 7.44647C14.9378 5.83077 12.7465 4.92308 10.4615 4.92308V4.92308ZM10.4615 6.76923C10.6846 6.76924 10.9001 6.85002 11.0682 6.99664C11.2363 7.14325 11.3457 7.34578 11.376 7.56677L11.3846 7.69231V13.2308C11.3845 13.4646 11.2957 13.6898 11.136 13.8607C10.9764 14.0316 10.7578 14.1355 10.5245 14.1514C10.2911 14.1674 10.0604 14.0941 9.87902 13.9465C9.69759 13.799 9.57896 13.588 9.54708 13.3563L9.53846 13.2308V7.69231C9.53846 7.44749 9.63571 7.2127 9.80882 7.03959C9.98193 6.86648 10.2167 6.76923 10.4615 6.76923V6.76923ZM19.2578 3.21723L19.36 3.29108L20.7852 4.47754C20.9637 4.62763 21.0787 4.83969 21.1072 5.07112C21.1358 5.30256 21.0756 5.5362 20.9389 5.72512C20.8022 5.91403 20.5991 6.0442 20.3704 6.08949C20.1416 6.13477 19.9042 6.09181 19.7058 5.96923L19.6049 5.89538L18.1785 4.70892C18 4.55884 17.885 4.34677 17.8564 4.11534C17.8279 3.88391 17.8881 3.65026 18.0248 3.46135C18.1615 3.27243 18.3646 3.14226 18.5933 3.09697C18.8221 3.05169 19.0595 3.09465 19.2578 3.21723V3.21723ZM13.2308 0C13.4646 7.16832e-05 13.6898 0.0889164 13.8607 0.248582C14.0316 0.408247 14.1355 0.626829 14.1514 0.86016C14.1674 1.09349 14.0941 1.32417 13.9465 1.5056C13.799 1.68702 13.588 1.80566 13.3563 1.83754L13.2308 1.84615H7.69231C7.45843 1.84608 7.2333 1.75724 7.06241 1.59757C6.89152 1.43791 6.7876 1.21933 6.77166 0.985994C6.75572 0.752663 6.82894 0.521979 6.97653 0.340555C7.12412 0.159131 7.33508 0.040494 7.56677 0.00861535L7.69231 0H13.2308Z" fill="white"/>
</svg>
