<svg width="26" height="23" viewBox="0 0 26 23" fill="none" xmlns="http://www.w3.org/2000/svg">
<path d="M6 16.75L6 19.375C6 20.0712 6.29438 20.7389 6.81838 21.2312C7.34238 21.7234 8.05307 22 8.79412 22L22.2059 22C22.9469 22 23.6576 21.7234 24.1816 21.2312C24.7056 20.7389 25 20.0712 25 19.375L25 3.625C25 2.92881 24.7056 2.26113 24.1816 1.76885C23.6576 1.27656 22.9469 1 22.2059 1L8.79412 1C8.05307 0.999999 7.34238 1.27656 6.81838 1.76884C6.29438 2.26113 6 2.92881 6 3.625L6 6.25" stroke="#4D4C4D" stroke-width="2" stroke-linecap="round" stroke-linejoin="round"/>
<path d="M14.7858 17.2858L20.5001 11.5715L14.7858 5.8572" stroke="#4D4C4D" stroke-width="2" stroke-linecap="round" stroke-linejoin="round"/>
<path d="M1 11.5714L20.5 11.5714" stroke="#4D4C4D" stroke-width="2" stroke-linecap="round" stroke-linejoin="round"/>
</svg>
