<svg width="20" height="20" viewBox="0 0 20 20" fill="none" xmlns="http://www.w3.org/2000/svg">
<path d="M6.74717 12.1C6.38239 12.1 6.075 11.9741 5.825 11.7222C5.575 11.4703 5.45 11.162 5.45 10.7972C5.45 10.4324 5.57594 10.125 5.82783 9.875C6.07969 9.625 6.38803 9.5 6.75283 9.5C7.11761 9.5 7.425 9.62594 7.675 9.87783C7.925 10.1297 8.05 10.438 8.05 10.8028C8.05 11.1676 7.92406 11.475 7.67217 11.725C7.42031 11.975 7.11197 12.1 6.74717 12.1ZM12.8472 12.1C12.4824 12.1 12.175 11.9741 11.925 11.7222C11.675 11.4703 11.55 11.162 11.55 10.7972C11.55 10.4324 11.6759 10.125 11.9278 9.875C12.1797 9.625 12.488 9.5 12.8528 9.5C13.2176 9.5 13.525 9.62594 13.775 9.87783C14.025 10.1297 14.15 10.438 14.15 10.8028C14.15 11.1676 14.0241 11.475 13.7722 11.725C13.5203 11.975 13.212 12.1 12.8472 12.1ZM9.8 17.95C12.0667 17.95 13.9917 17.1583 15.575 15.575C17.1583 13.9917 17.95 12.0692 17.95 9.8076C17.95 9.40253 17.925 9.00417 17.875 8.6125C17.825 8.22083 17.7333 7.85 17.6 7.5C17.25 7.58333 16.8917 7.64583 16.525 7.6875C16.1583 7.72917 15.7816 7.75 15.3949 7.75C13.865 7.75 12.4125 7.42083 11.0375 6.7625C9.6625 6.10417 8.48333 5.18333 7.5 4C6.96667 5.31667 6.19583 6.46667 5.1875 7.45C4.17917 8.43333 3 9.16953 1.65 9.65858V9.81035C1.65 12.0701 2.44167 13.9917 4.025 15.575C5.60833 17.1583 7.53333 17.95 9.8 17.95ZM9.80335 19.6C8.44813 19.6 7.17405 19.3428 5.9811 18.8285C4.78815 18.3142 3.75044 17.6162 2.86797 16.7345C1.98552 15.8528 1.28692 14.816 0.77215 13.6241C0.257383 12.4321 0 11.1586 0 9.80335C0 8.44813 0.257158 7.17405 0.771475 5.9811C1.28581 4.78815 1.98383 3.75044 2.86553 2.86797C3.74723 1.98552 4.78403 1.28692 5.97595 0.77215C7.16788 0.257383 8.44145 0 9.79665 0C11.1519 0 12.426 0.257159 13.6189 0.771475C14.8118 1.28581 15.8496 1.98382 16.732 2.86552C17.6145 3.74722 18.3131 4.78403 18.8279 5.97595C19.3426 7.16788 19.6 8.44145 19.6 9.79665C19.6 11.1519 19.3428 12.426 18.8285 13.6189C18.3142 14.8118 17.6162 15.8496 16.7345 16.732C15.8528 17.6145 14.816 18.3131 13.624 18.8279C12.4321 19.3426 11.1586 19.6 9.80335 19.6ZM8.0827 1.8923C8.96475 3.4205 10.1208 4.50383 11.551 5.1423C12.9811 5.78077 14.2641 6.1 15.4 6.1C15.6103 6.1 15.8445 6.08846 16.1029 6.06537C16.3612 6.04231 16.6058 5.99487 16.8365 5.92307C16.1173 4.55256 15.1279 3.49775 13.8683 2.75865C12.6087 2.01955 11.2526 1.65 9.8 1.65C9.44487 1.65 9.13525 1.66282 8.87115 1.68845C8.60705 1.7141 8.34423 1.78205 8.0827 1.8923ZM2.18655 7.43075C2.86603 7.12307 3.62981 6.58974 4.47787 5.83078C5.32596 5.07179 5.82115 4.06153 5.96345 2.8C4.92628 3.20898 4.0734 3.8436 3.4048 4.70385C2.73622 5.5641 2.33013 6.47307 2.18655 7.43075Z" fill="white"/>
</svg>
