<svg
   width="29"
   height="25"
   viewBox="0 0 29 25"
   fill="none"
   version="1.1"
   id="svg848"
   xmlns="http://www.w3.org/2000/svg"
   xmlns:svg="http://www.w3.org/2000/svg">
  <defs
     id="defs852" />
  <path
     d="M0 5C0 3.67392 0.526784 2.40215 1.46447 1.46447C2.40215 0.526784 3.67392 0 5 0H23C24.3261 0 25.5979 0.526784 26.5355 1.46447C27.4732 2.40215 28 3.67392 28 5V6.5H26V5C26 4.20435 25.6839 3.44129 25.1213 2.87868C24.5587 2.31607 23.7956 2 23 2H5C4.20435 2 3.44129 2.31607 2.87868 2.87868C2.31607 3.44129 2 4.20435 2 5V15C2 15.7956 2.31607 16.5587 2.87868 17.1213C3.44129 17.6839 4.20435 18 5 18H12.06C12.02 18.244 12 18.494 12 18.752C12 19.176 12.04 19.594 12.114 20H5C3.67392 20 2.40215 19.4732 1.46447 18.5355C0.526784 17.5979 0 16.3261 0 15V5Z"
     fill="#4D4C4D"
     id="path839" />
  <path
     d="M26.75 24C26.75 24 28.1667 24 28.1667 22.5833C28.1667 21.1667 26.75 16.9167 21.0833 16.9167C15.4167 16.9167 14 21.1667 14 22.5833C14 24 15.4167 24 15.4167 24H26.75ZM15.4478 22.5833C15.4374 22.5819 15.427 22.58 15.4167 22.5777C15.4181 22.2037 15.6533 21.1185 16.4933 20.141C17.2753 19.2244 18.6495 18.3333 21.0833 18.3333C23.5158 18.3333 24.8899 19.2258 25.6733 20.141C26.5134 21.1185 26.7472 22.2051 26.75 22.5777L26.7387 22.5805C26.7321 22.5816 26.7255 22.5826 26.7188 22.5833H15.4478ZM21.0833 14.0833C21.8348 14.0833 22.5554 13.7848 23.0868 13.2535C23.6182 12.7221 23.9167 12.0014 23.9167 11.25C23.9167 10.4986 23.6182 9.77788 23.0868 9.24653C22.5554 8.71518 21.8348 8.41667 21.0833 8.41667C20.3319 8.41667 19.6112 8.71518 19.0799 9.24653C18.5485 9.77788 18.25 10.4986 18.25 11.25C18.25 12.0014 18.5485 12.7221 19.0799 13.2535C19.6112 13.7848 20.3319 14.0833 21.0833 14.0833ZM25.3333 11.25C25.3333 11.8081 25.2234 12.3608 25.0098 12.8764C24.7962 13.392 24.4832 13.8606 24.0885 14.2552C23.6939 14.6499 23.2254 14.9629 22.7097 15.1765C22.1941 15.3901 21.6415 15.5 21.0833 15.5C20.5252 15.5 19.9726 15.3901 19.4569 15.1765C18.9413 14.9629 18.4728 14.6499 18.0781 14.2552C17.6835 13.8606 17.3704 13.392 17.1568 12.8764C16.9433 12.3608 16.8333 11.8081 16.8333 11.25C16.8333 10.1228 17.2811 9.04183 18.0781 8.2448C18.8752 7.44777 19.9562 7 21.0833 7C22.2105 7 23.2915 7.44777 24.0885 8.2448C24.8856 9.04183 25.3333 10.1228 25.3333 11.25Z"
     fill="#4D4C4D"
     stroke="#4D4C4D"
     stroke-width="0.15"
     id="path841" />
  <path
     fill="#4d4c4d"
     d="M 5,3.25 C 4.0433477,3.25 3.25,4.0433477 3.25,5 v 4 c 0,0.9566523 0.7933477,1.75 1.75,1.75 h 6 c 0.956652,0 1.75,-0.7933477 1.75,-1.75 V 5 C 12.75,4.0433477 11.956652,3.25 11,3.25 Z m 0,1.5 h 6 c 0.151347,0 0.25,0.098653 0.25,0.25 v 4 c 0,0.1513466 -0.09865,0.25 -0.25,0.25 H 5 C 4.8486534,9.25 4.75,9.1513466 4.75,9 V 5 C 4.75,4.8486534 4.8486534,4.75 5,4.75 Z"
     id="rect846" />
</svg>
