<svg width="34" height="26" viewBox="0 0 34 26" fill="none" xmlns="http://www.w3.org/2000/svg">
<path d="M31 25C31 25 33 25 33 23C33 21 31 15 23 15C15 15 13 21 13 23C13 25 15 25 15 25H31ZM15.044 23C15.0292 22.998 15.0145 22.9953 15 22.992C15.002 22.464 15.334 20.932 16.52 19.552C17.624 18.258 19.564 17 23 17C26.434 17 28.374 18.26 29.48 19.552C30.666 20.932 30.996 22.466 31 22.992L30.984 22.996C30.9747 22.9976 30.9654 22.9989 30.956 23H15.044ZM23 11C24.0609 11 25.0783 10.5786 25.8284 9.82843C26.5786 9.07828 27 8.06087 27 7C27 5.93913 26.5786 4.92172 25.8284 4.17157C25.0783 3.42143 24.0609 3 23 3C21.9391 3 20.9217 3.42143 20.1716 4.17157C19.4214 4.92172 19 5.93913 19 7C19 8.06087 19.4214 9.07828 20.1716 9.82843C20.9217 10.5786 21.9391 11 23 11ZM29 7C29 7.78793 28.8448 8.56815 28.5433 9.2961C28.2417 10.0241 27.7998 10.6855 27.2426 11.2426C26.6855 11.7998 26.0241 12.2417 25.2961 12.5433C24.5681 12.8448 23.7879 13 23 13C22.2121 13 21.4319 12.8448 20.7039 12.5433C19.9759 12.2417 19.3145 11.7998 18.7574 11.2426C18.2002 10.6855 17.7583 10.0241 17.4567 9.2961C17.1552 8.56815 17 7.78793 17 7C17 5.4087 17.6321 3.88258 18.7574 2.75736C19.8826 1.63214 21.4087 1 23 1C24.5913 1 26.1174 1.63214 27.2426 2.75736C28.3679 3.88258 29 5.4087 29 7ZM14.872 15.56C14.072 15.3081 13.2473 15.1425 12.412 15.066C11.9427 15.0214 11.4715 14.9993 11 15C3 15 1 21 1 23C1 24.334 1.666 25 3 25H11.432C11.1355 24.3756 10.9876 23.6911 11 23C11 20.98 11.754 18.916 13.18 17.192C13.666 16.604 14.232 16.054 14.872 15.56ZM10.84 17C9.65631 18.7785 9.01688 20.8636 9 23H3C3 22.48 3.328 20.94 4.52 19.552C5.61 18.28 7.504 17.04 10.84 17.002V17ZM4 8C4 6.4087 4.63214 4.88258 5.75736 3.75736C6.88258 2.63214 8.4087 2 10 2C11.5913 2 13.1174 2.63214 14.2426 3.75736C15.3679 4.88258 16 6.4087 16 8C16 9.5913 15.3679 11.1174 14.2426 12.2426C13.1174 13.3679 11.5913 14 10 14C8.4087 14 6.88258 13.3679 5.75736 12.2426C4.63214 11.1174 4 9.5913 4 8ZM10 4C8.93913 4 7.92172 4.42143 7.17157 5.17157C6.42143 5.92172 6 6.93913 6 8C6 9.06087 6.42143 10.0783 7.17157 10.8284C7.92172 11.5786 8.93913 12 10 12C11.0609 12 12.0783 11.5786 12.8284 10.8284C13.5786 10.0783 14 9.06087 14 8C14 6.93913 13.5786 5.92172 12.8284 5.17157C12.0783 4.42143 11.0609 4 10 4Z" fill="#4C4C4C" stroke="#4C4C4C" stroke-width="0.25"/>
</svg>
