<svg width="18" height="16" viewBox="0 0 18 16" fill="none" xmlns="http://www.w3.org/2000/svg">
  <path fill="#807e80" strokLinecap="round" strokeLinejoin="round" d="m 9.0996094,14.25 a 0.75,0.75 0 0 0 -0.75,0.75 0.75,0.75 0 0 0 0.75,0.75 h 7.4999996 a 0.75,0.75 0 0 0 0.75,-0.75 0.75,0.75 0 0 0 -0.75,-0.75 z" />
  <path fill="#807e80" strokLinecap="round" strokeLinejoin="round" d="m 14.099609,0.25 c -0.663712,0 -1.302099,0.2582168 -1.77539,0.72265625 L 1.9082031,11.193359 a 0.750075,0.750075 0 0 0 -0.2011719,0.351563 l -0.83398432,3.269531 a 0.750075,0.750075 0 0 0 0.90429682,0.914063 l 3.3339844,-0.81836 A 0.750075,0.750075 0 0 0 5.4589844,14.716797 L 15.875,4.4960937 C 16.109233,4.2661854 16.296128,3.9920929 16.423828,3.6894531 16.551341,3.3872564 16.617187,3.0626959 16.617187,2.734375 16.617188,2.4060541 16.551341,2.0814936 16.423828,1.7792969 16.296128,1.4766571 16.109233,1.2025646 15.875,0.97265625 15.640657,0.7427801 15.36318,0.56127971 15.058594,0.4375 14.754096,0.31375604 14.42837,0.25 14.099609,0.25 Z m 0,1.5 c 0.135439,0 0.27003,0.025576 0.394532,0.076172 0.124413,0.05056 0.236021,0.1245333 0.330078,0.2167969 0.09397,0.092231 0.166897,0.2020527 0.216797,0.3203125 0.05009,0.1187028 0.07617,0.243835 0.07617,0.3710937 0,0.1272587 -0.02609,0.254344 -0.07617,0.3730469 -0.0499,0.1182598 -0.122831,0.226128 -0.216797,0.3183594 L 4.5546875,13.501953 2.6347656,13.972656 3.1074219,12.117188 13.375,2.0429688 C 13.564708,1.8568088 13.825722,1.75 14.099609,1.75 Z" />
</svg>
