<svg width="8" height="6" viewBox="0 0 8 6" fill="none" xmlns="http://www.w3.org/2000/svg">
<path fill-rule="evenodd" clip-rule="evenodd" d="M7.35662 1.81562C7.43746 1.72934 7.50051 1.62799 7.54218 1.51734C7.58386 1.40669 7.60332 1.28892 7.59948 1.17075C7.59564 1.05258 7.56855 0.936319 7.51978 0.828614C7.471 0.720909 7.40149 0.623865 7.31522 0.543023C7.22894 0.462182 7.12758 0.399125 7.01693 0.357454C6.90629 0.315783 6.78851 0.296314 6.67034 0.300159C6.55217 0.304003 6.43591 0.331086 6.32821 0.37986C6.2205 0.428634 6.12346 0.498144 6.04262 0.584423L3.26792 3.54542L1.89722 2.32772C1.71763 2.17843 1.48704 2.10479 1.25417 2.12236C1.02129 2.13993 0.804361 2.24733 0.649207 2.42188C0.494053 2.59643 0.412823 2.82445 0.422677 3.05778C0.432531 3.29111 0.532698 3.51148 0.702017 3.67232L2.72702 5.47232C2.90223 5.62797 3.13125 5.70912 3.36538 5.69853C3.5995 5.68794 3.82026 5.58645 3.98072 5.41562L7.35662 1.81562Z" fill="white"/>
</svg>
