<svg width="16" height="16" viewBox="0 0 16 16" fill="none" xmlns="http://www.w3.org/2000/svg">
<path fill-rule="evenodd" clip-rule="evenodd" d="M8.00033 0.666656C3.95033 0.666656 0.666992 3.94999 0.666992 7.99999C0.666992 12.05 3.95033 15.3333 8.00033 15.3333C12.0503 15.3333 15.3337 12.05 15.3337 7.99999C15.3337 3.94999 12.0503 0.666656 8.00033 0.666656ZM6.52899 5.80466C6.40755 5.67892 6.34036 5.51052 6.34188 5.33572C6.34339 5.16092 6.41351 4.99372 6.53711 4.87011C6.66072 4.74651 6.82793 4.67639 7.00272 4.67487C7.17752 4.67335 7.34592 4.74055 7.47166 4.86199L10.1383 7.52866C10.2633 7.65367 10.3335 7.82321 10.3335 7.99999C10.3335 8.17677 10.2633 8.3463 10.1383 8.47132L7.47166 11.138C7.34592 11.2594 7.17752 11.3266 7.00272 11.3251C6.82793 11.3236 6.66072 11.2535 6.53711 11.1299C6.41351 11.0063 6.34339 10.8391 6.34188 10.6643C6.34036 10.4895 6.40755 10.3211 6.52899 10.1953L8.72433 7.99999L6.52899 5.80466Z" fill="white"/>
</svg>
