<svg width="20" height="20" viewBox="0 0 20 20" fill="none" xmlns="http://www.w3.org/2000/svg">
<path d="M15.3693 20.0001C11.2947 19.9948 7.38854 18.3706 4.50738 15.4837C1.62623 12.5968 0.00528135 8.68282 0 4.60011C0 3.38012 0.483674 2.21009 1.34462 1.34742C2.20556 0.484756 3.37326 0.000114295 4.59082 0.000114295C4.84864 -0.00185351 5.10604 0.0215926 5.35928 0.0701142C5.6041 0.106415 5.84478 0.166704 6.07784 0.250114C6.24176 0.307744 6.38783 0.407248 6.5016 0.538787C6.61538 0.670325 6.69291 0.829343 6.72655 1.00011L8.09381 7.00011C8.13066 7.16298 8.12623 7.33249 8.0809 7.4932C8.03557 7.6539 7.95081 7.80067 7.83433 7.92011C7.70459 8.06011 7.69461 8.07011 6.46706 8.71011C7.45009 10.871 9.17485 12.6063 11.3273 13.6001C11.976 12.3601 11.986 12.3501 12.1257 12.2201C12.245 12.1034 12.3914 12.0185 12.5518 11.9731C12.7122 11.9276 12.8814 11.9232 13.0439 11.9601L19.0319 13.3301C19.1969 13.3685 19.3494 13.4483 19.4751 13.562C19.6008 13.6757 19.6956 13.8196 19.7505 13.9801C19.8347 14.2175 19.8982 14.4617 19.9401 14.7101C19.9803 14.9614 20.0003 15.2156 20 15.4701C19.9816 16.6849 19.4843 17.8431 18.6167 18.6918C17.7491 19.5405 16.5817 20.0108 15.3693 20.0001Z" fill="#9036F7"/>
</svg>
